<svg xmlns="http://www.w3.org/2000/svg" viewBox="0 0 1440 900"><rect width="1440" height="900" fill="#0a0a0a"/><path d="M0,900 L0,185.40000000000006 Q0.0,153.6 6.0,153.2 Q12.0,152.8 18.0,152.4 Q24.0,152.0 30.0,151.6 Q36.0,151.2 42.0,150.7 Q48.0,150.2 54.0,149.8 Q60.0,149.3 66.0,148.7 Q72.0,148.2 78.0,147.6 Q84.0,147.1 90.0,146.5 Q96.0,145.9 102.0,145.2 Q108.0,144.6 114.0,143.9 Q120.0,143.1 126.0,142.4 Q132.0,141.6 138.0,140.8 Q144.0,140.0 150.0,139.2 Q156.0,138.3 162.0,137.4 Q168.0,136.5 174.0,135.6 Q180.0,134.7 186.0,133.7 Q192.0,132.7 198.0,131.7 Q204.0,130.7 210.0,129.6 Q216.0,128.5 222.0,127.5 Q228.0,126.4 234.0,125.3 Q240.0,124.2 246.0,123.1 Q252.0,122.0 258.0,120.8 Q264.0,119.7 270.0,118.6 Q276.0,117.5 282.0,116.4 Q288.0,115.3 294.0,114.2 Q300.0,113.1 306.0,112.0 Q312.0,111.0 318.0,110.0 Q324.0,108.9 330.0,108.0 Q336.0,107.0 342.0,106.1 Q348.0,105.2 354.0,104.3 Q360.0,103.5 366.0,102.7 Q372.0,102.0 378.0,101.3 Q384.0,100.6 390.0,100.0 Q396.0,99.5 402.0,99.0 Q408.0,98.5 414.0,98.2 Q420.0,97.9 426.0,97.6 Q432.0,97.4 438.0,97.3 Q444.0,97.2 450.0,97.3 Q456.0,97.4 462.0,97.6 Q468.0,97.8 474.0,98.1 Q480.0,98.5 486.0,99.0 Q492.0,99.5 498.0,100.2 Q504.0,100.9 510.0,101.8 Q516.0,102.6 522.0,103.6 Q528.0,104.7 534.0,105.9 Q540.0,107.1 546.0,108.4 Q552.0,109.8 558.0,111.4 Q564.0,112.9 570.0,114.6 Q576.0,116.3 582.0,118.2 Q588.0,120.1 594.0,122.1 Q600.0,124.2 606.0,126.4 Q612.0,128.6 618.0,130.9 Q624.0,133.3 630.0,135.8 Q636.0,138.3 642.0,140.9 Q648.0,143.6 654.0,146.3 Q660.0,149.1 666.0,152.0 Q672.0,154.9 678.0,157.9 Q684.0,160.9 690.0,164.0 Q696.0,167.0 702.0,170.2 Q708.0,173.4 714.0,176.6 Q720.0,179.9 726.0,183.2 Q732.0,186.5 738.0,189.8 Q744.0,193.2 750.0,196.5 Q756.0,199.9 762.0,203.3 Q768.0,206.7 774.0,210.1 Q780.0,213.4 786.0,216.8 Q792.0,220.2 798.0,223.5 Q804.0,226.8 810.0,230.1 Q816.0,233.4 822.0,236.6 Q828.0,239.8 834.0,243.0 Q840.0,246.1 846.0,249.1 Q852.0,252.2 858.0,255.1 Q864.0,258.1 870.0,260.9 Q876.0,263.7 882.0,266.4 Q888.0,269.1 894.0,271.6 Q900.0,274.1 906.0,276.5 Q912.0,278.9 918.0,281.1 Q924.0,283.3 930.0,285.3 Q936.0,287.4 942.0,289.2 Q948.0,291.1 954.0,292.7 Q960.0,294.4 966.0,295.8 Q972.0,297.2 978.0,298.5 Q984.0,299.7 990.0,300.7 Q996.0,301.8 1002.0,302.6 Q1008.0,303.4 1014.0,304.0 Q1020.0,304.5 1026.0,304.9 Q1032.0,305.3 1038.0,305.4 Q1044.0,305.6 1050.0,305.5 Q1056.0,305.4 1062.0,305.2 Q1068.0,304.9 1074.0,304.4 Q1080.0,303.9 1086.0,303.2 Q1092.0,302.5 1098.0,301.6 Q1104.0,300.7 1110.0,299.6 Q1116.0,298.5 1122.0,297.2 Q1128.0,295.9 1134.0,294.5 Q1140.0,293.0 1146.0,291.4 Q1152.0,289.7 1158.0,288.0 Q1164.0,286.2 1170.0,284.2 Q1176.0,282.3 1182.0,280.2 Q1188.0,278.2 1194.0,276.0 Q1200.0,273.8 1206.0,271.5 Q1212.0,269.2 1218.0,266.8 Q1224.0,264.4 1230.0,261.9 Q1236.0,259.5 1242.0,256.9 Q1248.0,254.4 1254.0,251.8 Q1260.0,249.2 1266.0,246.5 Q1272.0,243.9 1278.0,241.2 Q1284.0,238.6 1290.0,235.9 Q1296.0,233.2 1302.0,230.5 Q1308.0,227.8 1314.0,225.1 Q1320.0,222.5 1326.0,219.8 Q1332.0,217.1 1338.0,214.5 Q1344.0,211.9 1350.0,209.3 Q1356.0,206.8 1362.0,204.3 Q1368.0,201.7 1374.0,199.3 Q1380.0,196.8 1386.0,194.5 Q1392.0,192.1 1398.0,189.8 Q1404.0,187.5 1410.0,185.3 Q1416.0,183.1 1422.0,181.0 Q1428.0,178.9 1434.0,176.9 L1440,900 Z" fill="#7c3aed" opacity="0.65"/><path d="M0,900 L0,292.50000000000006 Q0.0,238.7 6.0,236.5 Q12.0,234.2 18.0,232.0 Q24.0,229.8 30.0,227.6 Q36.0,225.5 42.0,223.3 Q48.0,221.1 54.0,219.0 Q60.0,216.9 66.0,214.8 Q72.0,212.8 78.0,210.8 Q84.0,208.8 90.0,206.9 Q96.0,204.9 102.0,203.1 Q108.0,201.3 114.0,199.6 Q120.0,197.8 126.0,196.2 Q132.0,194.6 138.0,193.1 Q144.0,191.6 150.0,190.3 Q156.0,189.0 162.0,187.8 Q168.0,186.6 174.0,185.5 Q180.0,184.5 186.0,183.6 Q192.0,182.8 198.0,182.1 Q204.0,181.4 210.0,180.9 Q216.0,180.4 222.0,180.0 Q228.0,179.7 234.0,179.6 Q240.0,179.5 246.0,179.6 Q252.0,179.6 258.0,179.9 Q264.0,180.2 270.0,180.7 Q276.0,181.2 282.0,181.9 Q288.0,182.6 294.0,183.5 Q300.0,184.4 306.0,185.5 Q312.0,186.6 318.0,188.0 Q324.0,189.3 330.0,190.8 Q336.0,192.3 342.0,194.1 Q348.0,195.8 354.0,197.7 Q360.0,199.6 366.0,201.7 Q372.0,203.8 378.0,206.1 Q384.0,208.4 390.0,210.8 Q396.0,213.3 402.0,215.9 Q408.0,218.5 414.0,221.3 Q420.0,224.0 426.0,226.9 Q432.0,229.8 438.0,232.8 Q444.0,235.9 450.0,239.0 Q456.0,242.1 462.0,245.3 Q468.0,248.6 474.0,251.9 Q480.0,255.2 486.0,258.6 Q492.0,262.0 498.0,265.4 Q504.0,268.9 510.0,272.3 Q516.0,275.8 522.0,279.3 Q528.0,282.8 534.0,286.3 Q540.0,289.8 546.0,293.3 Q552.0,296.8 558.0,300.3 Q564.0,303.8 570.0,307.2 Q576.0,310.6 582.0,314.0 Q588.0,317.4 594.0,320.7 Q600.0,324.0 606.0,327.3 Q612.0,330.5 618.0,333.6 Q624.0,336.7 630.0,339.8 Q636.0,342.8 642.0,345.7 Q648.0,348.6 654.0,351.3 Q660.0,354.1 666.0,356.7 Q672.0,359.3 678.0,361.8 Q684.0,364.3 690.0,366.6 Q696.0,368.9 702.0,371.0 Q708.0,373.1 714.0,375.1 Q720.0,377.1 726.0,378.8 Q732.0,380.6 738.0,382.2 Q744.0,383.8 750.0,385.2 Q756.0,386.6 762.0,387.8 Q768.0,389.0 774.0,390.0 Q780.0,391.0 786.0,391.8 Q792.0,392.6 798.0,393.2 Q804.0,393.8 810.0,394.3 Q816.0,394.7 822.0,394.9 Q828.0,395.2 834.0,395.3 Q840.0,395.3 846.0,395.2 Q852.0,395.1 858.0,394.8 Q864.0,394.5 870.0,394.1 Q876.0,393.6 882.0,393.0 Q888.0,392.4 894.0,391.6 Q900.0,390.9 906.0,390.0 Q912.0,389.1 918.0,388.1 Q924.0,387.1 930.0,385.9 Q936.0,384.8 942.0,383.5 Q948.0,382.3 954.0,380.9 Q960.0,379.6 966.0,378.2 Q972.0,376.7 978.0,375.2 Q984.0,373.7 990.0,372.2 Q996.0,370.6 1002.0,369.0 Q1008.0,367.4 1014.0,365.7 Q1020.0,364.1 1026.0,362.4 Q1032.0,360.7 1038.0,359.0 Q1044.0,357.3 1050.0,355.6 Q1056.0,353.9 1062.0,352.2 Q1068.0,350.5 1074.0,348.8 Q1080.0,347.1 1086.0,345.4 Q1092.0,343.7 1098.0,342.1 Q1104.0,340.4 1110.0,338.8 Q1116.0,337.2 1122.0,335.6 Q1128.0,334.1 1134.0,332.6 Q1140.0,331.0 1146.0,329.6 Q1152.0,328.1 1158.0,326.7 Q1164.0,325.3 1170.0,323.9 Q1176.0,322.6 1182.0,321.3 Q1188.0,320.0 1194.0,318.8 Q1200.0,317.6 1206.0,316.5 Q1212.0,315.3 1218.0,314.2 Q1224.0,313.2 1230.0,312.1 Q1236.0,311.1 1242.0,310.2 Q1248.0,309.2 1254.0,308.3 Q1260.0,307.4 1266.0,306.6 Q1272.0,305.8 1278.0,305.0 Q1284.0,304.2 1290.0,303.5 Q1296.0,302.8 1302.0,302.1 Q1308.0,301.4 1314.0,300.8 Q1320.0,300.1 1326.0,299.5 Q1332.0,298.9 1338.0,298.3 Q1344.0,297.8 1350.0,297.2 Q1356.0,296.6 1362.0,296.1 Q1368.0,295.6 1374.0,295.0 Q1380.0,294.5 1386.0,293.9 Q1392.0,293.4 1398.0,292.8 Q1404.0,292.3 1410.0,291.7 Q1416.0,291.1 1422.0,290.6 Q1428.0,290.0 1434.0,289.3 L1440,900 Z" fill="#8348ef" opacity="0.71"/><path d="M0,900 L0,399.6000000000001 Q0.0,340.2 6.0,337.1 Q12.0,334.1 18.0,331.1 Q24.0,328.1 30.0,325.3 Q36.0,322.4 42.0,319.7 Q48.0,317.0 54.0,314.4 Q60.0,311.8 66.0,309.4 Q72.0,307.0 78.0,304.7 Q84.0,302.5 90.0,300.4 Q96.0,298.3 102.0,296.4 Q108.0,294.5 114.0,292.8 Q120.0,291.1 126.0,289.6 Q132.0,288.1 138.0,286.8 Q144.0,285.5 150.0,284.4 Q156.0,283.3 162.0,282.5 Q168.0,281.6 174.0,280.9 Q180.0,280.3 186.0,279.9 Q192.0,279.4 198.0,279.2 Q204.0,279.0 210.0,279.0 Q216.0,279.0 222.0,279.2 Q228.0,279.5 234.0,279.9 Q240.0,280.3 246.0,281.0 Q252.0,281.6 258.0,282.5 Q264.0,283.3 270.0,284.4 Q276.0,285.4 282.0,286.7 Q288.0,287.9 294.0,289.3 Q300.0,290.8 306.0,292.4 Q312.0,294.0 318.0,295.7 Q324.0,297.5 330.0,299.4 Q336.0,301.3 342.0,303.3 Q348.0,305.4 354.0,307.6 Q360.0,309.7 366.0,312.0 Q372.0,314.3 378.0,316.7 Q384.0,319.1 390.0,321.6 Q396.0,324.1 402.0,326.6 Q408.0,329.2 414.0,331.8 Q420.0,334.4 426.0,337.1 Q432.0,339.8 438.0,342.5 Q444.0,345.2 450.0,347.9 Q456.0,350.6 462.0,353.3 Q468.0,356.1 474.0,358.8 Q480.0,361.5 486.0,364.2 Q492.0,366.9 498.0,369.6 Q504.0,372.3 510.0,374.9 Q516.0,377.5 522.0,380.1 Q528.0,382.7 534.0,385.2 Q540.0,387.7 546.0,390.2 Q552.0,392.6 558.0,395.0 Q564.0,397.3 570.0,399.6 Q576.0,401.9 582.0,404.1 Q588.0,406.2 594.0,408.3 Q600.0,410.4 606.0,412.4 Q612.0,414.3 618.0,416.2 Q624.0,418.0 630.0,419.8 Q636.0,421.5 642.0,423.1 Q648.0,424.8 654.0,426.3 Q660.0,427.8 666.0,429.2 Q672.0,430.6 678.0,431.8 Q684.0,433.1 690.0,434.3 Q696.0,435.4 702.0,436.5 Q708.0,437.5 714.0,438.5 Q720.0,439.4 726.0,440.2 Q732.0,441.1 738.0,441.8 Q744.0,442.5 750.0,443.2 Q756.0,443.8 762.0,444.4 Q768.0,444.9 774.0,445.4 Q780.0,445.8 786.0,446.2 Q792.0,446.6 798.0,446.9 Q804.0,447.2 810.0,447.5 Q816.0,447.8 822.0,448.0 Q828.0,448.2 834.0,448.3 Q840.0,448.5 846.0,448.6 Q852.0,448.8 858.0,448.9 Q864.0,449.0 870.0,449.0 Q876.0,449.1 882.0,449.2 Q888.0,449.2 894.0,449.3 Q900.0,449.4 906.0,449.4 Q912.0,449.5 918.0,449.6 Q924.0,449.6 930.0,449.7 Q936.0,449.8 942.0,449.9 Q948.0,450.0 954.0,450.1 Q960.0,450.2 966.0,450.4 Q972.0,450.6 978.0,450.8 Q984.0,450.9 990.0,451.2 Q996.0,451.4 1002.0,451.7 Q1008.0,451.9 1014.0,452.2 Q1020.0,452.5 1026.0,452.9 Q1032.0,453.2 1038.0,453.6 Q1044.0,454.0 1050.0,454.4 Q1056.0,454.8 1062.0,455.3 Q1068.0,455.8 1074.0,456.3 Q1080.0,456.8 1086.0,457.3 Q1092.0,457.8 1098.0,458.4 Q1104.0,458.9 1110.0,459.5 Q1116.0,460.1 1122.0,460.7 Q1128.0,461.3 1134.0,461.9 Q1140.0,462.5 1146.0,463.1 Q1152.0,463.7 1158.0,464.3 Q1164.0,464.9 1170.0,465.5 Q1176.0,466.0 1182.0,466.6 Q1188.0,467.2 1194.0,467.7 Q1200.0,468.2 1206.0,468.7 Q1212.0,469.2 1218.0,469.7 Q1224.0,470.1 1230.0,470.5 Q1236.0,470.9 1242.0,471.3 Q1248.0,471.6 1254.0,471.9 Q1260.0,472.1 1266.0,472.3 Q1272.0,472.4 1278.0,472.5 Q1284.0,472.6 1290.0,472.6 Q1296.0,472.6 1302.0,472.4 Q1308.0,472.3 1314.0,472.0 Q1320.0,471.8 1326.0,471.4 Q1332.0,471.1 1338.0,470.5 Q1344.0,470.0 1350.0,469.4 Q1356.0,468.8 1362.0,468.0 Q1368.0,467.2 1374.0,466.3 Q1380.0,465.4 1386.0,464.3 Q1392.0,463.2 1398.0,462.0 Q1404.0,460.8 1410.0,459.4 Q1416.0,458.1 1422.0,456.5 Q1428.0,455.0 1434.0,453.4 L1440,900 Z" fill="#8a55f1" opacity="0.77"/><path d="M0,900 L0,506.70000000000005 Q0.0,446.5 6.0,448.1 Q12.0,449.6 18.0,451.2 Q24.0,452.7 30.0,454.3 Q36.0,455.8 42.0,457.3 Q48.0,458.8 54.0,460.2 Q60.0,461.7 66.0,463.1 Q72.0,464.5 78.0,465.9 Q84.0,467.2 90.0,468.6 Q96.0,469.9 102.0,471.1 Q108.0,472.4 114.0,473.5 Q120.0,474.7 126.0,475.9 Q132.0,477.0 138.0,478.1 Q144.0,479.1 150.0,480.1 Q156.0,481.1 162.0,482.1 Q168.0,483.0 174.0,483.9 Q180.0,484.8 186.0,485.6 Q192.0,486.4 198.0,487.2 Q204.0,488.0 210.0,488.7 Q216.0,489.4 222.0,490.1 Q228.0,490.8 234.0,491.4 Q240.0,492.0 246.0,492.6 Q252.0,493.3 258.0,493.8 Q264.0,494.4 270.0,495.0 Q276.0,495.5 282.0,496.0 Q288.0,496.6 294.0,497.1 Q300.0,497.6 306.0,498.2 Q312.0,498.7 318.0,499.2 Q324.0,499.8 330.0,500.3 Q336.0,500.9 342.0,501.5 Q348.0,502.0 354.0,502.6 Q360.0,503.2 366.0,503.9 Q372.0,504.5 378.0,505.2 Q384.0,505.9 390.0,506.6 Q396.0,507.3 402.0,508.1 Q408.0,508.9 414.0,509.7 Q420.0,510.6 426.0,511.5 Q432.0,512.4 438.0,513.3 Q444.0,514.3 450.0,515.3 Q456.0,516.4 462.0,517.5 Q468.0,518.6 474.0,519.8 Q480.0,521.0 486.0,522.2 Q492.0,523.5 498.0,524.8 Q504.0,526.2 510.0,527.6 Q516.0,529.0 522.0,530.5 Q528.0,532.0 534.0,533.5 Q540.0,535.1 546.0,536.7 Q552.0,538.3 558.0,540.0 Q564.0,541.7 570.0,543.4 Q576.0,545.1 582.0,546.9 Q588.0,548.7 594.0,550.5 Q600.0,552.4 606.0,554.2 Q612.0,556.1 618.0,558.0 Q624.0,559.9 630.0,561.8 Q636.0,563.7 642.0,565.6 Q648.0,567.5 654.0,569.4 Q660.0,571.4 666.0,573.3 Q672.0,575.2 678.0,577.0 Q684.0,578.9 690.0,580.8 Q696.0,582.6 702.0,584.4 Q708.0,586.2 714.0,587.9 Q720.0,589.7 726.0,591.3 Q732.0,593.0 738.0,594.6 Q744.0,596.2 750.0,597.7 Q756.0,599.2 762.0,600.5 Q768.0,601.9 774.0,603.2 Q780.0,604.5 786.0,605.6 Q792.0,606.8 798.0,607.8 Q804.0,608.8 810.0,609.6 Q816.0,610.5 822.0,611.2 Q828.0,611.9 834.0,612.4 Q840.0,612.9 846.0,613.3 Q852.0,613.6 858.0,613.8 Q864.0,614.0 870.0,614.0 Q876.0,614.0 882.0,613.8 Q888.0,613.6 894.0,613.2 Q900.0,612.8 906.0,612.2 Q912.0,611.6 918.0,610.8 Q924.0,610.0 930.0,609.0 Q936.0,608.0 942.0,606.8 Q948.0,605.7 954.0,604.3 Q960.0,602.9 966.0,601.3 Q972.0,599.7 978.0,597.9 Q984.0,596.1 990.0,594.2 Q996.0,592.2 1002.0,590.1 Q1008.0,587.9 1014.0,585.6 Q1020.0,583.3 1026.0,580.8 Q1032.0,578.3 1038.0,575.7 Q1044.0,573.0 1050.0,570.2 Q1056.0,567.4 1062.0,564.5 Q1068.0,561.6 1074.0,558.6 Q1080.0,555.5 1086.0,552.4 Q1092.0,549.2 1098.0,546.0 Q1104.0,542.7 1110.0,539.4 Q1116.0,536.0 1122.0,532.6 Q1128.0,529.2 1134.0,525.8 Q1140.0,522.3 1146.0,518.8 Q1152.0,515.3 1158.0,511.8 Q1164.0,508.3 1170.0,504.8 Q1176.0,501.3 1182.0,497.8 Q1188.0,494.3 1194.0,490.8 Q1200.0,487.3 1206.0,483.8 Q1212.0,480.4 1218.0,477.0 Q1224.0,473.6 1230.0,470.3 Q1236.0,467.0 1242.0,463.7 Q1248.0,460.5 1254.0,457.4 Q1260.0,454.2 1266.0,451.2 Q1272.0,448.2 1278.0,445.3 Q1284.0,442.4 1290.0,439.7 Q1296.0,436.9 1302.0,434.3 Q1308.0,431.7 1314.0,429.2 Q1320.0,426.8 1326.0,424.5 Q1332.0,422.2 1338.0,420.1 Q1344.0,418.0 1350.0,416.1 Q1356.0,414.2 1362.0,412.4 Q1368.0,410.7 1374.0,409.2 Q1380.0,407.6 1386.0,406.3 Q1392.0,405.0 1398.0,403.8 Q1404.0,402.7 1410.0,401.8 Q1416.0,400.8 1422.0,400.1 Q1428.0,399.4 1434.0,398.8 L1440,900 Z" fill="#9263f4" opacity="0.82"/><path d="M0,900 L0,613.8000000000001 Q0.0,727.7 6.0,727.5 Q12.0,727.3 18.0,726.9 Q24.0,726.5 30.0,725.9 Q36.0,725.3 42.0,724.5 Q48.0,723.7 54.0,722.7 Q60.0,721.8 66.0,720.7 Q72.0,719.5 78.0,718.3 Q84.0,717.0 90.0,715.5 Q96.0,714.1 102.0,712.6 Q108.0,711.0 114.0,709.3 Q120.0,707.6 126.0,705.8 Q132.0,704.0 138.0,702.1 Q144.0,700.2 150.0,698.2 Q156.0,696.2 162.0,694.1 Q168.0,692.1 174.0,689.9 Q180.0,687.8 186.0,685.6 Q192.0,683.5 198.0,681.2 Q204.0,679.0 210.0,676.8 Q216.0,674.5 222.0,672.3 Q228.0,670.0 234.0,667.7 Q240.0,665.5 246.0,663.2 Q252.0,661.0 258.0,658.7 Q264.0,656.5 270.0,654.3 Q276.0,652.1 282.0,649.9 Q288.0,647.8 294.0,645.6 Q300.0,643.5 306.0,641.5 Q312.0,639.4 318.0,637.4 Q324.0,635.4 330.0,633.5 Q336.0,631.6 342.0,629.7 Q348.0,627.9 354.0,626.1 Q360.0,624.3 366.0,622.7 Q372.0,621.0 378.0,619.4 Q384.0,617.8 390.0,616.3 Q396.0,614.8 402.0,613.4 Q408.0,612.0 414.0,610.6 Q420.0,609.3 426.0,608.1 Q432.0,606.9 438.0,605.7 Q444.0,604.6 450.0,603.5 Q456.0,602.5 462.0,601.5 Q468.0,600.5 474.0,599.6 Q480.0,598.7 486.0,597.9 Q492.0,597.1 498.0,596.3 Q504.0,595.6 510.0,594.9 Q516.0,594.2 522.0,593.6 Q528.0,593.0 534.0,592.4 Q540.0,591.8 546.0,591.3 Q552.0,590.7 558.0,590.3 Q564.0,589.8 570.0,589.3 Q576.0,588.8 582.0,588.4 Q588.0,587.9 594.0,587.5 Q600.0,587.1 606.0,586.7 Q612.0,586.2 618.0,585.8 Q624.0,585.4 630.0,585.0 Q636.0,584.6 642.0,584.1 Q648.0,583.7 654.0,583.2 Q660.0,582.8 666.0,582.3 Q672.0,581.8 678.0,581.3 Q684.0,580.7 690.0,580.2 Q696.0,579.6 702.0,579.0 Q708.0,578.4 714.0,577.8 Q720.0,577.2 726.0,576.5 Q732.0,575.8 738.0,575.1 Q744.0,574.3 750.0,573.5 Q756.0,572.7 762.0,571.9 Q768.0,571.1 774.0,570.2 Q780.0,569.3 786.0,568.4 Q792.0,567.4 798.0,566.4 Q804.0,565.4 810.0,564.4 Q816.0,563.4 822.0,562.3 Q828.0,561.2 834.0,560.1 Q840.0,559.0 846.0,557.9 Q852.0,556.8 858.0,555.6 Q864.0,554.4 870.0,553.2 Q876.0,552.1 882.0,550.9 Q888.0,549.7 894.0,548.5 Q900.0,547.3 906.0,546.1 Q912.0,544.9 918.0,543.7 Q924.0,542.5 930.0,541.4 Q936.0,540.2 942.0,539.1 Q948.0,538.0 954.0,536.9 Q960.0,535.9 966.0,534.8 Q972.0,533.8 978.0,532.9 Q984.0,531.9 990.0,531.0 Q996.0,530.1 1002.0,529.3 Q1008.0,528.5 1014.0,527.8 Q1020.0,527.1 1026.0,526.5 Q1032.0,525.9 1038.0,525.4 Q1044.0,525.0 1050.0,524.6 Q1056.0,524.2 1062.0,524.0 Q1068.0,523.8 1074.0,523.7 Q1080.0,523.6 1086.0,523.7 Q1092.0,523.7 1098.0,523.9 Q1104.0,524.1 1110.0,524.5 Q1116.0,524.9 1122.0,525.4 Q1128.0,526.0 1134.0,526.7 Q1140.0,527.4 1146.0,528.3 Q1152.0,529.1 1158.0,530.2 Q1164.0,531.2 1170.0,532.5 Q1176.0,533.7 1182.0,535.1 Q1188.0,536.5 1194.0,538.1 Q1200.0,539.7 1206.0,541.4 Q1212.0,543.2 1218.0,545.1 Q1224.0,547.0 1230.0,549.1 Q1236.0,551.2 1242.0,553.4 Q1248.0,555.7 1254.0,558.1 Q1260.0,560.4 1266.0,563.0 Q1272.0,565.5 1278.0,568.2 Q1284.0,570.9 1290.0,573.7 Q1296.0,576.5 1302.0,579.4 Q1308.0,582.4 1314.0,585.4 Q1320.0,588.4 1326.0,591.6 Q1332.0,594.7 1338.0,597.9 Q1344.0,601.1 1350.0,604.4 Q1356.0,607.7 1362.0,611.0 Q1368.0,614.3 1374.0,617.7 Q1380.0,621.1 1386.0,624.5 Q1392.0,627.8 1398.0,631.3 Q1404.0,634.7 1410.0,638.1 Q1416.0,641.5 1422.0,644.8 Q1428.0,648.2 1434.0,651.6 L1440,900 Z" fill="#9970f6" opacity="0.88"/><path d="M0,900 L0,720.9000000000001 Q0.0,723.3 6.0,722.7 Q12.0,722.1 18.0,721.6 Q24.0,721.0 30.0,720.5 Q36.0,720.0 42.0,719.4 Q48.0,718.9 54.0,718.3 Q60.0,717.8 66.0,717.2 Q72.0,716.6 78.0,716.0 Q84.0,715.4 90.0,714.8 Q96.0,714.2 102.0,713.5 Q108.0,712.9 114.0,712.2 Q120.0,711.5 126.0,710.7 Q132.0,710.0 138.0,709.2 Q144.0,708.4 150.0,707.5 Q156.0,706.6 162.0,705.7 Q168.0,704.8 174.0,703.8 Q180.0,702.8 186.0,701.8 Q192.0,700.7 198.0,699.6 Q204.0,698.5 210.0,697.3 Q216.0,696.1 222.0,694.8 Q228.0,693.6 234.0,692.3 Q240.0,690.9 246.0,689.6 Q252.0,688.2 258.0,686.7 Q264.0,685.3 270.0,683.8 Q276.0,682.3 282.0,680.7 Q288.0,679.1 294.0,677.5 Q300.0,675.9 306.0,674.3 Q312.0,672.6 318.0,671.0 Q324.0,669.3 330.0,667.6 Q336.0,665.8 342.0,664.1 Q348.0,662.4 354.0,660.7 Q360.0,658.9 366.0,657.2 Q372.0,655.4 378.0,653.7 Q384.0,652.0 390.0,650.3 Q396.0,648.6 402.0,646.9 Q408.0,645.2 414.0,643.6 Q420.0,642.0 426.0,640.4 Q432.0,638.8 438.0,637.3 Q444.0,635.8 450.0,634.3 Q456.0,632.9 462.0,631.6 Q468.0,630.2 474.0,629.0 Q480.0,627.7 486.0,626.6 Q492.0,625.5 498.0,624.4 Q504.0,623.4 510.0,622.5 Q516.0,621.7 522.0,620.9 Q528.0,620.2 534.0,619.6 Q540.0,619.0 546.0,618.6 Q552.0,618.1 558.0,617.9 Q564.0,617.6 570.0,617.5 Q576.0,617.4 582.0,617.5 Q588.0,617.6 594.0,617.9 Q600.0,618.2 606.0,618.6 Q612.0,619.1 618.0,619.7 Q624.0,620.4 630.0,621.2 Q636.0,622.1 642.0,623.1 Q648.0,624.2 654.0,625.4 Q660.0,626.6 666.0,628.1 Q672.0,629.5 678.0,631.1 Q684.0,632.7 690.0,634.6 Q696.0,636.4 702.0,638.4 Q708.0,640.3 714.0,642.5 Q720.0,644.7 726.0,647.0 Q732.0,649.4 738.0,651.9 Q744.0,654.4 750.0,657.0 Q756.0,659.7 762.0,662.5 Q768.0,665.2 774.0,668.2 Q780.0,671.1 786.0,674.1 Q792.0,677.2 798.0,680.3 Q804.0,683.5 810.0,686.8 Q816.0,690.0 822.0,693.3 Q828.0,696.7 834.0,700.1 Q840.0,703.5 846.0,706.9 Q852.0,710.3 858.0,713.8 Q864.0,717.3 870.0,720.8 Q876.0,724.3 882.0,727.8 Q888.0,731.3 894.0,734.8 Q900.0,738.3 906.0,741.8 Q912.0,745.3 918.0,748.7 Q924.0,752.1 930.0,755.5 Q936.0,758.9 942.0,762.2 Q948.0,765.5 954.0,768.7 Q960.0,771.9 966.0,775.0 Q972.0,778.2 978.0,781.2 Q984.0,784.2 990.0,787.0 Q996.0,789.9 1002.0,792.6 Q1008.0,795.4 1014.0,797.9 Q1020.0,800.5 1026.0,802.9 Q1032.0,805.4 1038.0,807.6 Q1044.0,809.9 1050.0,811.9 Q1056.0,814.0 1062.0,815.9 Q1068.0,817.8 1074.0,819.4 Q1080.0,821.1 1086.0,822.6 Q1092.0,824.1 1098.0,825.4 Q1104.0,826.7 1110.0,827.8 Q1116.0,828.8 1122.0,829.7 Q1128.0,830.6 1134.0,831.3 Q1140.0,831.9 1146.0,832.4 Q1152.0,832.8 1158.0,833.1 Q1164.0,833.3 1170.0,833.4 Q1176.0,833.4 1182.0,833.3 Q1188.0,833.1 1194.0,832.8 Q1200.0,832.4 1206.0,831.9 Q1212.0,831.4 1218.0,830.6 Q1224.0,829.9 1230.0,829.0 Q1236.0,828.2 1242.0,827.1 Q1248.0,826.0 1254.0,824.8 Q1260.0,823.6 1266.0,822.3 Q1272.0,820.9 1278.0,819.4 Q1284.0,817.9 1290.0,816.3 Q1296.0,814.7 1302.0,813.0 Q1308.0,811.3 1314.0,809.4 Q1320.0,807.6 1326.0,805.7 Q1332.0,803.8 1338.0,801.8 Q1344.0,799.8 1350.0,797.7 Q1356.0,795.7 1362.0,793.6 Q1368.0,791.5 1374.0,789.3 Q1380.0,787.2 1386.0,785.0 Q1392.0,782.9 1398.0,780.7 Q1404.0,778.5 1410.0,776.3 Q1416.0,774.1 1422.0,772.0 Q1428.0,769.8 1434.0,767.6 L1440,900 Z" fill="#a07ef8" opacity="0.94"/><path d="M0,900 L0,828 Q0.0,899.6 6.0,899.3 Q12.0,899.0 18.0,898.6 Q24.0,898.2 30.0,897.7 Q36.0,897.2 42.0,896.5 Q48.0,895.9 54.0,895.1 Q60.0,894.3 66.0,893.3 Q72.0,892.4 78.0,891.3 Q84.0,890.2 90.0,889.0 Q96.0,887.7 102.0,886.3 Q108.0,885.0 114.0,883.4 Q120.0,881.9 126.0,880.2 Q132.0,878.5 138.0,876.7 Q144.0,874.9 150.0,872.9 Q156.0,870.9 162.0,868.8 Q168.0,866.7 174.0,864.4 Q180.0,862.2 186.0,859.8 Q192.0,857.4 198.0,854.9 Q204.0,852.4 210.0,849.8 Q216.0,847.2 222.0,844.4 Q228.0,841.7 234.0,838.9 Q240.0,836.1 246.0,833.2 Q252.0,830.3 258.0,827.3 Q264.0,824.3 270.0,821.3 Q276.0,818.2 282.0,815.1 Q288.0,812.0 294.0,808.9 Q300.0,805.8 306.0,802.6 Q312.0,799.5 318.0,796.3 Q324.0,793.2 330.0,790.0 Q336.0,786.8 342.0,783.7 Q348.0,780.6 354.0,777.5 Q360.0,774.4 366.0,771.3 Q372.0,768.3 378.0,765.3 Q384.0,762.3 390.0,759.4 Q396.0,756.5 402.0,753.7 Q408.0,750.9 414.0,748.2 Q420.0,745.5 426.0,742.9 Q432.0,740.3 438.0,737.9 Q444.0,735.4 450.0,733.1 Q456.0,730.8 462.0,728.7 Q468.0,726.6 474.0,724.6 Q480.0,722.6 486.0,720.8 Q492.0,719.0 498.0,717.4 Q504.0,715.8 510.0,714.4 Q516.0,713.0 522.0,711.8 Q528.0,710.6 534.0,709.6 Q540.0,708.7 546.0,707.9 Q552.0,707.1 558.0,706.6 Q564.0,706.0 570.0,705.7 Q576.0,705.3 582.0,705.2 Q588.0,705.1 594.0,705.2 Q600.0,705.3 606.0,705.7 Q612.0,706.0 618.0,706.6 Q624.0,707.1 630.0,707.9 Q636.0,708.7 642.0,709.7 Q648.0,710.7 654.0,711.8 Q660.0,713.0 666.0,714.4 Q672.0,715.8 678.0,717.4 Q684.0,719.0 690.0,720.8 Q696.0,722.5 702.0,724.5 Q708.0,726.4 714.0,728.5 Q720.0,730.6 726.0,732.9 Q732.0,735.1 738.0,737.5 Q744.0,739.9 750.0,742.5 Q756.0,745.0 762.0,747.6 Q768.0,750.3 774.0,753.0 Q780.0,755.8 786.0,758.6 Q792.0,761.4 798.0,764.3 Q804.0,767.2 810.0,770.2 Q816.0,773.1 822.0,776.1 Q828.0,779.1 834.0,782.1 Q840.0,785.2 846.0,788.2 Q852.0,791.3 858.0,794.3 Q864.0,797.3 870.0,800.4 Q876.0,803.4 882.0,806.4 Q888.0,809.4 894.0,812.4 Q900.0,815.3 906.0,818.2 Q912.0,821.1 918.0,824.0 Q924.0,826.8 930.0,829.6 Q936.0,832.4 942.0,835.1 Q948.0,837.7 954.0,840.3 Q960.0,842.9 966.0,845.4 Q972.0,847.9 978.0,850.2 Q984.0,852.6 990.0,854.8 Q996.0,857.1 1002.0,859.2 Q1008.0,861.3 1014.0,863.3 Q1020.0,865.3 1026.0,867.2 Q1032.0,869.0 1038.0,870.8 Q1044.0,872.5 1050.0,874.1 Q1056.0,875.6 1062.0,877.1 Q1068.0,878.5 1074.0,879.8 Q1080.0,881.1 1086.0,882.3 Q1092.0,883.4 1098.0,884.5 Q1104.0,885.5 1110.0,886.4 Q1116.0,887.3 1122.0,888.0 Q1128.0,888.8 1134.0,889.4 Q1140.0,890.1 1146.0,890.6 Q1152.0,891.1 1158.0,891.5 Q1164.0,891.9 1170.0,892.2 Q1176.0,892.5 1182.0,892.7 Q1188.0,892.9 1194.0,893.0 Q1200.0,893.1 1206.0,893.1 Q1212.0,893.1 1218.0,893.0 Q1224.0,893.0 1230.0,892.9 Q1236.0,892.7 1242.0,892.5 Q1248.0,892.4 1254.0,892.1 Q1260.0,891.9 1266.0,891.6 Q1272.0,891.3 1278.0,891.0 Q1284.0,890.7 1290.0,890.3 Q1296.0,890.0 1302.0,889.7 Q1308.0,889.3 1314.0,888.9 Q1320.0,888.6 1326.0,888.2 Q1332.0,887.8 1338.0,887.5 Q1344.0,887.1 1350.0,886.8 Q1356.0,886.4 1362.0,886.1 Q1368.0,885.8 1374.0,885.5 Q1380.0,885.2 1386.0,884.9 Q1392.0,884.6 1398.0,884.4 Q1404.0,884.1 1410.0,883.9 Q1416.0,883.7 1422.0,883.5 Q1428.0,883.3 1434.0,883.2 L1440,900 Z" fill="#a78bfa" opacity="1.00"/></svg>