<svg xmlns="http://www.w3.org/2000/svg" viewBox="0 0 1440 900"><defs><linearGradient id="mg64829" x1="0%" y1="0%" x2="100%" y2="100%"><stop offset="0%" stop-color="#F5A623"/><stop offset="100%" stop-color="#EC4899"/></linearGradient></defs><rect width="1440" height="900" fill="#0C0C0E"/><path d="M792.0,80.4 C952.9,101.7 865.8,49.0 999.8,119.0 C1133.8,189.1 1136.9,144.6 1174.9,280.6 C1212.8,416.6 1161.1,352.7 1108.1,507.7 C1055.1,662.7 1134.0,605.4 1023.4,723.5 C912.7,841.5 927.4,881.6 792.0,845.0 C656.6,808.4 779.9,726.4 636.5,619.0 C493.2,511.5 413.4,640.7 382.4,538.1 C351.4,435.5 492.9,493.7 548.1,325.8 C603.3,157.8 454.6,144.0 540.0,58.1 C625.4,-27.7 631.1,59.1 792.0,80.4 Z" fill="url(#mg64829)" opacity="0.93"/></svg>