<svg xmlns="http://www.w3.org/2000/svg" viewBox="0 0 1440 900"><rect width="1440" height="900" fill="#05070A"/><path d="M0.0,17.7L9.6,16.0L19.2,14.2L28.8,12.3L38.4,10.2L48.0,8.1L57.6,5.8L67.2,3.4L76.8,1.0L86.4,-1.4L96.0,-3.9L105.6,-6.3L115.2,-8.7L124.8,-11.1L134.4,-13.3L144.0,-15.4L153.6,-17.4L163.2,-19.2L172.8,-20.8L182.4,-22.2L192.0,-23.4L201.6,-24.2L211.2,-24.8L220.8,-25.1L230.4,-25.1L240.0,-24.8L249.6,-24.1L259.2,-23.1L268.8,-21.7L278.4,-20.0L288.0,-18.0L297.6,-15.6L307.2,-12.9L316.8,-9.9L326.4,-6.6L336.0,-3.0L345.6,0.9L355.2,4.9L364.8,9.2L374.4,13.7L384.0,18.3L393.6,23.0L403.2,27.9L412.8,32.8L422.4,37.7L432.0,42.7L441.6,47.6L451.2,52.4L460.8,57.2L470.4,61.8L480.0,66.3L489.6,70.6L499.2,74.8L508.8,78.7L518.4,82.4L528.0,85.9L537.6,89.1L547.2,92.0L556.8,94.7L566.4,97.1L576.0,99.2L585.6,101.1L595.2,102.7L604.8,104.0L614.4,105.1L624.0,105.9L633.6,106.5L643.2,106.9L652.8,107.2L662.4,107.2L672.0,107.1L681.6,106.8L691.2,106.5L700.8,106.1L710.4,105.6L720.0,105.0L729.6,104.5L739.2,103.9L748.8,103.4L758.4,102.9L768.0,102.4L777.6,102.0L787.2,101.7L796.8,101.4L806.4,101.3L816.0,101.2L825.6,101.2L835.2,101.4L844.8,101.6L854.4,101.9L864.0,102.3L873.6,102.7L883.2,103.2L892.8,103.8L902.4,104.4L912.0,104.9L921.6,105.5L931.2,106.0L940.8,106.5L950.4,106.9L960.0,107.2L969.6,107.4L979.2,107.4L988.8,107.3L998.4,107.0L1008.0,106.5L1017.6,105.8L1027.2,104.8L1036.8,103.6L1046.4,102.2L1056.0,100.5L1065.6,98.5L1075.2,96.2L1084.8,93.7L1094.4,90.9L1104.0,87.9L1113.6,84.6L1123.2,81.0L1132.8,77.2L1142.4,73.3L1152.0,69.1L1161.6,64.7L1171.2,60.2L1180.8,55.6L1190.4,50.9L1200.0,46.1L1209.6,41.3L1219.2,36.5L1228.8,31.7L1238.4,26.9L1248.0,22.3L1257.6,17.7L1267.2,13.3L1276.8,9.1L1286.4,5.1L1296.0,1.3L1305.6,-2.2L1315.2,-5.5L1324.8,-8.4L1334.4,-11.1L1344.0,-13.4L1353.6,-15.4L1363.2,-17.1L1372.8,-18.4L1382.4,-19.4L1392.0,-20.1L1401.6,-20.4L1411.2,-20.4L1420.8,-20.1L1430.4,-19.4L1440.0,-18.5" fill="none" stroke="#f5a623" stroke-width="0.4" opacity="0.18"/><path d="M0.0,165.2L9.6,167.7L19.2,170.1L28.8,172.4L38.4,174.5L48.0,176.5L57.6,178.4L67.2,180.0L76.8,181.4L86.4,182.6L96.0,183.5L105.6,184.1L115.2,184.4L124.8,184.4L134.4,184.0L144.0,183.4L153.6,182.4L163.2,181.1L172.8,179.4L182.4,177.4L192.0,175.0L201.6,172.4L211.2,169.4L220.8,166.2L230.4,162.7L240.0,158.9L249.6,154.9L259.2,150.8L268.8,146.4L278.4,141.9L288.0,137.3L297.6,132.6L307.2,127.8L316.8,123.1L326.4,118.3L336.0,113.6L345.6,108.9L355.2,104.4L364.8,99.9L374.4,95.7L384.0,91.6L393.6,87.7L403.2,84.0L412.8,80.6L422.4,77.5L432.0,74.6L441.6,72.0L451.2,69.6L460.8,67.6L470.4,65.8L480.0,64.4L489.6,63.2L499.2,62.3L508.8,61.7L518.4,61.3L528.0,61.1L537.6,61.2L547.2,61.5L556.8,61.9L566.4,62.6L576.0,63.3L585.6,64.2L595.2,65.1L604.8,66.1L614.4,67.2L624.0,68.3L633.6,69.4L643.2,70.4L652.8,71.5L662.4,72.4L672.0,73.3L681.6,74.1L691.2,74.8L700.8,75.4L710.4,75.9L720.0,76.2L729.6,76.5L739.2,76.6L748.8,76.6L758.4,76.5L768.0,76.3L777.6,76.0L787.2,75.6L796.8,75.2L806.4,74.7L816.0,74.2L825.6,73.7L835.2,73.1L844.8,72.7L854.4,72.2L864.0,71.8L873.6,71.6L883.2,71.4L892.8,71.4L902.4,71.5L912.0,71.7L921.6,72.2L931.2,72.8L940.8,73.7L950.4,74.7L960.0,76.0L969.6,77.5L979.2,79.2L988.8,81.2L998.4,83.3L1008.0,85.7L1017.6,88.2L1027.2,91.0L1036.8,93.9L1046.4,97.0L1056.0,100.2L1065.6,103.5L1075.2,106.8L1084.8,110.3L1094.4,113.8L1104.0,117.2L1113.6,120.7L1123.2,124.1L1132.8,127.4L1142.4,130.6L1152.0,133.7L1161.6,136.6L1171.2,139.2L1180.8,141.7L1190.4,143.9L1200.0,145.9L1209.6,147.5L1219.2,148.9L1228.8,149.9L1238.4,150.6L1248.0,150.9L1257.6,150.9L1267.2,150.6L1276.8,149.9L1286.4,148.8L1296.0,147.4L1305.6,145.7L1315.2,143.6L1324.8,141.3L1334.4,138.6L1344.0,135.7L1353.6,132.6L1363.2,129.2L1372.8,125.6L1382.4,121.9L1392.0,118.0L1401.6,114.0L1411.2,109.9L1420.8,105.8L1430.4,101.7L1440.0,97.5" fill="none" stroke="#f6a228" stroke-width="0.5" opacity="0.22"/><path d="M0.0,78.5L9.6,79.0L19.2,79.8L28.8,80.8L38.4,82.0L48.0,83.5L57.6,85.3L67.2,87.3L76.8,89.7L86.4,92.2L96.0,95.1L105.6,98.2L115.2,101.5L124.8,105.0L134.4,108.7L144.0,112.6L153.6,116.7L163.2,120.9L172.8,125.2L182.4,129.5L192.0,133.9L201.6,138.4L211.2,142.8L220.8,147.1L230.4,151.4L240.0,155.6L249.6,159.6L259.2,163.5L268.8,167.2L278.4,170.7L288.0,173.9L297.6,176.9L307.2,179.6L316.8,182.0L326.4,184.0L336.0,185.8L345.6,187.2L355.2,188.3L364.8,189.0L374.4,189.4L384.0,189.5L393.6,189.2L403.2,188.6L412.8,187.7L422.4,186.6L432.0,185.1L441.6,183.4L451.2,181.5L460.8,179.4L470.4,177.1L480.0,174.6L489.6,172.0L499.2,169.3L508.8,166.6L518.4,163.8L528.0,160.9L537.6,158.1L547.2,155.3L556.8,152.6L566.4,150.0L576.0,147.4L585.6,145.0L595.2,142.7L604.8,140.5L614.4,138.5L624.0,136.7L633.6,135.0L643.2,133.5L652.8,132.2L662.4,131.1L672.0,130.1L681.6,129.3L691.2,128.7L700.8,128.2L710.4,127.8L720.0,127.5L729.6,127.3L739.2,127.2L748.8,127.2L758.4,127.2L768.0,127.2L777.6,127.3L787.2,127.3L796.8,127.3L806.4,127.2L816.0,127.0L825.6,126.8L835.2,126.4L844.8,126.0L854.4,125.4L864.0,124.7L873.6,123.8L883.2,122.8L892.8,121.7L902.4,120.4L912.0,118.9L921.6,117.4L931.2,115.7L940.8,113.9L950.4,112.0L960.0,110.1L969.6,108.1L979.2,106.0L988.8,104.0L998.4,101.9L1008.0,99.9L1017.6,97.9L1027.2,96.0L1036.8,94.2L1046.4,92.6L1056.0,91.1L1065.6,89.8L1075.2,88.7L1084.8,87.8L1094.4,87.2L1104.0,86.9L1113.6,86.9L1123.2,87.1L1132.8,87.7L1142.4,88.6L1152.0,89.8L1161.6,91.4L1171.2,93.3L1180.8,95.5L1190.4,98.0L1200.0,100.9L1209.6,104.1L1219.2,107.6L1228.8,111.3L1238.4,115.3L1248.0,119.5L1257.6,123.9L1267.2,128.6L1276.8,133.3L1286.4,138.2L1296.0,143.2L1305.6,148.2L1315.2,153.3L1324.8,158.4L1334.4,163.4L1344.0,168.4L1353.6,173.3L1363.2,178.0L1372.8,182.7L1382.4,187.1L1392.0,191.3L1401.6,195.4L1411.2,199.1L1420.8,202.7L1430.4,205.9L1440.0,208.9" fill="none" stroke="#f69e2d" stroke-width="0.6" opacity="0.27"/><path d="M0.0,247.0L9.6,247.0L19.2,247.0L28.8,247.1L38.4,247.2L48.0,247.3L57.6,247.6L67.2,247.9L76.8,248.3L86.4,248.8L96.0,249.4L105.6,250.2L115.2,251.1L124.8,252.0L134.4,253.1L144.0,254.4L153.6,255.7L163.2,257.0L172.8,258.5L182.4,260.0L192.0,261.6L201.6,263.2L211.2,264.8L220.8,266.3L230.4,267.8L240.0,269.3L249.6,270.6L259.2,271.8L268.8,272.9L278.4,273.8L288.0,274.6L297.6,275.1L307.2,275.3L316.8,275.4L326.4,275.1L336.0,274.6L345.6,273.8L355.2,272.6L364.8,271.1L374.4,269.4L384.0,267.3L393.6,264.8L403.2,262.1L412.8,259.0L422.4,255.7L432.0,252.0L441.6,248.1L451.2,243.9L460.8,239.5L470.4,234.9L480.0,230.1L489.6,225.2L499.2,220.1L508.8,214.9L518.4,209.7L528.0,204.4L537.6,199.1L547.2,193.8L556.8,188.6L566.4,183.5L576.0,178.5L585.6,173.7L595.2,169.0L604.8,164.6L614.4,160.3L624.0,156.3L633.6,152.6L643.2,149.2L652.8,146.0L662.4,143.1L672.0,140.6L681.6,138.3L691.2,136.4L700.8,134.8L710.4,133.5L720.0,132.4L729.6,131.7L739.2,131.3L748.8,131.1L758.4,131.1L768.0,131.4L777.6,131.8L787.2,132.5L796.8,133.3L806.4,134.2L816.0,135.3L825.6,136.4L835.2,137.6L844.8,138.9L854.4,140.2L864.0,141.4L873.6,142.7L883.2,143.8L892.8,145.0L902.4,146.0L912.0,147.0L921.6,147.9L931.2,148.7L940.8,149.4L950.4,149.9L960.0,150.4L969.6,150.7L979.2,151.0L988.8,151.1L998.4,151.2L1008.0,151.2L1017.6,151.1L1027.2,151.0L1036.8,150.8L1046.4,150.7L1056.0,150.5L1065.6,150.4L1075.2,150.4L1084.8,150.4L1094.4,150.5L1104.0,150.7L1113.6,151.0L1123.2,151.5L1132.8,152.2L1142.4,153.0L1152.0,154.0L1161.6,155.3L1171.2,156.7L1180.8,158.4L1190.4,160.3L1200.0,162.4L1209.6,164.7L1219.2,167.2L1228.8,170.0L1238.4,172.9L1248.0,176.0L1257.6,179.4L1267.2,182.8L1276.8,186.4L1286.4,190.1L1296.0,193.9L1305.6,197.8L1315.2,201.7L1324.8,205.6L1334.4,209.4L1344.0,213.3L1353.6,217.0L1363.2,220.7L1372.8,224.2L1382.4,227.5L1392.0,230.7L1401.6,233.6L1411.2,236.3L1420.8,238.7L1430.4,240.8L1440.0,242.7" fill="none" stroke="#f79a31" stroke-width="0.8" opacity="0.31"/><path d="M0.0,267.6L9.6,267.3L19.2,267.2L28.8,267.1L38.4,267.2L48.0,267.4L57.6,267.7L67.2,268.1L76.8,268.6L86.4,269.2L96.0,269.8L105.6,270.5L115.2,271.2L124.8,271.9L134.4,272.6L144.0,273.3L153.6,273.9L163.2,274.5L172.8,274.9L182.4,275.2L192.0,275.4L201.6,275.4L211.2,275.3L220.8,274.9L230.4,274.4L240.0,273.5L249.6,272.5L259.2,271.2L268.8,269.6L278.4,267.8L288.0,265.7L297.6,263.4L307.2,260.7L316.8,257.9L326.4,254.8L336.0,251.4L345.6,247.8L355.2,244.1L364.8,240.1L374.4,236.0L384.0,231.8L393.6,227.5L403.2,223.1L412.8,218.6L422.4,214.2L432.0,209.7L441.6,205.3L451.2,200.9L460.8,196.7L470.4,192.6L480.0,188.7L489.6,185.0L499.2,181.5L508.8,178.2L518.4,175.2L528.0,172.5L537.6,170.1L547.2,168.0L556.8,166.3L566.4,164.9L576.0,163.8L585.6,163.1L595.2,162.8L604.8,162.7L614.4,163.1L624.0,163.8L633.6,164.7L643.2,166.0L652.8,167.6L662.4,169.5L672.0,171.6L681.6,173.9L691.2,176.5L700.8,179.2L710.4,182.1L720.0,185.1L729.6,188.2L739.2,191.3L748.8,194.6L758.4,197.8L768.0,201.0L777.6,204.2L787.2,207.4L796.8,210.5L806.4,213.5L816.0,216.4L825.6,219.1L835.2,221.8L844.8,224.3L854.4,226.7L864.0,228.9L873.6,231.0L883.2,232.9L892.8,234.7L902.4,236.3L912.0,237.9L921.6,239.3L931.2,240.6L940.8,241.8L950.4,243.0L960.0,244.1L969.6,245.2L979.2,246.3L988.8,247.3L998.4,248.4L1008.0,249.5L1017.6,250.7L1027.2,252.0L1036.8,253.4L1046.4,254.9L1056.0,256.5L1065.6,258.2L1075.2,260.1L1084.8,262.1L1094.4,264.3L1104.0,266.7L1113.6,269.2L1123.2,271.9L1132.8,274.8L1142.4,277.7L1152.0,280.9L1161.6,284.1L1171.2,287.5L1180.8,290.9L1190.4,294.4L1200.0,298.0L1209.6,301.6L1219.2,305.2L1228.8,308.7L1238.4,312.2L1248.0,315.7L1257.6,319.0L1267.2,322.2L1276.8,325.3L1286.4,328.1L1296.0,330.7L1305.6,333.1L1315.2,335.3L1324.8,337.2L1334.4,338.7L1344.0,340.0L1353.6,340.9L1363.2,341.5L1372.8,341.8L1382.4,341.7L1392.0,341.2L1401.6,340.4L1411.2,339.2L1420.8,337.7L1430.4,335.9L1440.0,333.8" fill="none" stroke="#f89636" stroke-width="0.9" opacity="0.35"/><path d="M0.0,278.7L9.6,274.3L19.2,270.0L28.8,265.6L38.4,261.2L48.0,257.0L57.6,252.8L67.2,248.8L76.8,244.9L86.4,241.2L96.0,237.7L105.6,234.4L115.2,231.5L124.8,228.8L134.4,226.4L144.0,224.3L153.6,222.5L163.2,221.1L172.8,220.0L182.4,219.3L192.0,219.0L201.6,219.0L211.2,219.3L220.8,220.0L230.4,221.0L240.0,222.3L249.6,223.9L259.2,225.8L268.8,228.0L278.4,230.4L288.0,233.0L297.6,235.8L307.2,238.7L316.8,241.8L326.4,245.0L336.0,248.3L345.6,251.6L355.2,255.0L364.8,258.4L374.4,261.7L384.0,265.0L393.6,268.3L403.2,271.4L412.8,274.5L422.4,277.4L432.0,280.2L441.6,282.9L451.2,285.4L460.8,287.8L470.4,290.0L480.0,292.1L489.6,294.0L499.2,295.8L508.8,297.5L518.4,299.0L528.0,300.4L537.6,301.7L547.2,302.9L556.8,304.1L566.4,305.2L576.0,306.3L585.6,307.4L595.2,308.5L604.8,309.6L614.4,310.8L624.0,312.0L633.6,313.3L643.2,314.7L652.8,316.2L662.4,317.9L672.0,319.7L681.6,321.6L691.2,323.7L700.8,325.9L710.4,328.3L720.0,330.9L729.6,333.6L739.2,336.4L748.8,339.4L758.4,342.5L768.0,345.7L777.6,349.0L787.2,352.4L796.8,355.9L806.4,359.3L816.0,362.8L825.6,366.3L835.2,369.7L844.8,373.1L854.4,376.3L864.0,379.5L873.6,382.5L883.2,385.3L892.8,387.9L902.4,390.3L912.0,392.4L921.6,394.2L931.2,395.8L940.8,397.1L950.4,398.0L960.0,398.6L969.6,398.9L979.2,398.8L988.8,398.4L998.4,397.6L1008.0,396.4L1017.6,395.0L1027.2,393.2L1036.8,391.0L1046.4,388.6L1056.0,385.9L1065.6,382.9L1075.2,379.6L1084.8,376.2L1094.4,372.5L1104.0,368.7L1113.6,364.7L1123.2,360.7L1132.8,356.5L1142.4,352.3L1152.0,348.1L1161.6,343.9L1171.2,339.8L1180.8,335.7L1190.4,331.7L1200.0,327.9L1209.6,324.2L1219.2,320.6L1228.8,317.3L1238.4,314.2L1248.0,311.3L1257.6,308.7L1267.2,306.3L1276.8,304.1L1286.4,302.2L1296.0,300.6L1305.6,299.3L1315.2,298.1L1324.8,297.3L1334.4,296.7L1344.0,296.2L1353.6,296.1L1363.2,296.0L1372.8,296.2L1382.4,296.5L1392.0,297.0L1401.6,297.6L1411.2,298.3L1420.8,299.0L1430.4,299.8L1440.0,300.6" fill="none" stroke="#f8923b" stroke-width="1.0" opacity="0.40"/><path d="M0.0,319.6L9.6,323.8L19.2,328.3L28.8,332.9L38.4,337.7L48.0,342.6L57.6,347.6L67.2,352.6L76.8,357.6L86.4,362.7L96.0,367.7L105.6,372.6L115.2,377.4L124.8,382.1L134.4,386.6L144.0,391.0L153.6,395.2L163.2,399.1L172.8,402.9L182.4,406.4L192.0,409.6L201.6,412.5L211.2,415.2L220.8,417.7L230.4,419.8L240.0,421.7L249.6,423.4L259.2,424.8L268.8,425.9L278.4,426.9L288.0,427.6L297.6,428.1L307.2,428.5L316.8,428.7L326.4,428.8L336.0,428.7L345.6,428.6L355.2,428.4L364.8,428.2L374.4,427.9L384.0,427.6L393.6,427.4L403.2,427.1L412.8,427.0L422.4,426.8L432.0,426.8L441.6,426.8L451.2,426.9L460.8,427.2L470.4,427.5L480.0,427.9L489.6,428.4L499.2,429.0L508.8,429.7L518.4,430.4L528.0,431.3L537.6,432.1L547.2,433.0L556.8,433.9L566.4,434.8L576.0,435.7L585.6,436.5L595.2,437.2L604.8,437.9L614.4,438.4L624.0,438.9L633.6,439.1L643.2,439.2L652.8,439.1L662.4,438.8L672.0,438.2L681.6,437.4L691.2,436.4L700.8,435.0L710.4,433.5L720.0,431.6L729.6,429.5L739.2,427.1L748.8,424.4L758.4,421.5L768.0,418.3L777.6,414.9L787.2,411.3L796.8,407.4L806.4,403.4L816.0,399.2L825.6,394.9L835.2,390.5L844.8,385.9L854.4,381.4L864.0,376.8L873.6,372.2L883.2,367.7L892.8,363.2L902.4,358.9L912.0,354.7L921.6,350.6L931.2,346.7L940.8,343.1L950.4,339.6L960.0,336.5L969.6,333.6L979.2,331.0L988.8,328.7L998.4,326.8L1008.0,325.1L1017.6,323.9L1027.2,322.9L1036.8,322.3L1046.4,322.0L1056.0,322.1L1065.6,322.4L1075.2,323.1L1084.8,324.1L1094.4,325.3L1104.0,326.8L1113.6,328.5L1123.2,330.4L1132.8,332.5L1142.4,334.8L1152.0,337.2L1161.6,339.7L1171.2,342.3L1180.8,344.9L1190.4,347.5L1200.0,350.2L1209.6,352.8L1219.2,355.4L1228.8,357.8L1238.4,360.2L1248.0,362.5L1257.6,364.7L1267.2,366.7L1276.8,368.6L1286.4,370.3L1296.0,371.8L1305.6,373.2L1315.2,374.4L1324.8,375.4L1334.4,376.3L1344.0,377.0L1353.6,377.6L1363.2,378.0L1372.8,378.3L1382.4,378.5L1392.0,378.7L1401.6,378.7L1411.2,378.7L1420.8,378.7L1430.4,378.6L1440.0,378.6" fill="none" stroke="#f98e40" stroke-width="1.1" opacity="0.44"/><path d="M0.0,474.7L9.6,478.9L19.2,482.9L28.8,486.7L38.4,490.2L48.0,493.5L57.6,496.4L67.2,499.1L76.8,501.5L86.4,503.5L96.0,505.2L105.6,506.6L115.2,507.7L124.8,508.5L134.4,509.0L144.0,509.2L153.6,509.1L163.2,508.8L172.8,508.2L182.4,507.5L192.0,506.5L201.6,505.3L211.2,504.0L220.8,502.5L230.4,500.9L240.0,499.3L249.6,497.6L259.2,495.8L268.8,494.1L278.4,492.3L288.0,490.6L297.6,488.9L307.2,487.3L316.8,485.7L326.4,484.2L336.0,482.8L345.6,481.6L355.2,480.4L364.8,479.3L374.4,478.4L384.0,477.5L393.6,476.7L403.2,476.0L412.8,475.5L422.4,474.9L432.0,474.4L441.6,474.0L451.2,473.6L460.8,473.1L470.4,472.7L480.0,472.2L489.6,471.7L499.2,471.0L508.8,470.3L518.4,469.5L528.0,468.5L537.6,467.3L547.2,466.0L556.8,464.5L566.4,462.9L576.0,461.0L585.6,458.8L595.2,456.5L604.8,454.0L614.4,451.2L624.0,448.2L633.6,445.0L643.2,441.6L652.8,437.9L662.4,434.1L672.0,430.2L681.6,426.1L691.2,421.8L700.8,417.5L710.4,413.0L720.0,408.6L729.6,404.1L739.2,399.6L748.8,395.1L758.4,390.7L768.0,386.4L777.6,382.2L787.2,378.2L796.8,374.3L806.4,370.6L816.0,367.2L825.6,364.0L835.2,361.1L844.8,358.6L854.4,356.3L864.0,354.3L873.6,352.7L883.2,351.4L892.8,350.5L902.4,350.0L912.0,349.8L921.6,349.9L931.2,350.4L940.8,351.2L950.4,352.4L960.0,353.9L969.6,355.6L979.2,357.7L988.8,359.9L998.4,362.4L1008.0,365.1L1017.6,368.0L1027.2,371.0L1036.8,374.2L1046.4,377.4L1056.0,380.6L1065.6,383.9L1075.2,387.2L1084.8,390.5L1094.4,393.7L1104.0,396.9L1113.6,399.9L1123.2,402.8L1132.8,405.6L1142.4,408.2L1152.0,410.6L1161.6,412.9L1171.2,415.0L1180.8,416.8L1190.4,418.5L1200.0,420.0L1209.6,421.2L1219.2,422.3L1228.8,423.2L1238.4,423.9L1248.0,424.4L1257.6,424.8L1267.2,425.0L1276.8,425.1L1286.4,425.1L1296.0,425.1L1305.6,424.9L1315.2,424.7L1324.8,424.5L1334.4,424.3L1344.0,424.1L1353.6,424.0L1363.2,423.9L1372.8,423.8L1382.4,423.9L1392.0,424.0L1401.6,424.3L1411.2,424.7L1420.8,425.2L1430.4,425.8L1440.0,426.5" fill="none" stroke="#fa8a45" stroke-width="1.2" opacity="0.48"/><path d="M0.0,420.9L9.6,421.5L19.2,422.1L28.8,422.7L38.4,423.4L48.0,424.0L57.6,424.5L67.2,425.0L76.8,425.5L86.4,425.8L96.0,426.1L105.6,426.3L115.2,426.4L124.8,426.3L134.4,426.2L144.0,426.0L153.6,425.7L163.2,425.3L172.8,424.8L182.4,424.2L192.0,423.6L201.6,423.0L211.2,422.3L220.8,421.7L230.4,421.1L240.0,420.5L249.6,420.0L259.2,419.5L268.8,419.2L278.4,419.0L288.0,419.0L297.6,419.2L307.2,419.5L316.8,420.1L326.4,420.9L336.0,421.9L345.6,423.3L355.2,424.8L364.8,426.7L374.4,428.9L384.0,431.3L393.6,434.0L403.2,437.0L412.8,440.3L422.4,443.9L432.0,447.7L441.6,451.8L451.2,456.1L460.8,460.6L470.4,465.2L480.0,470.1L489.6,475.0L499.2,480.1L508.8,485.2L518.4,490.4L528.0,495.6L537.6,500.8L547.2,505.9L556.8,511.0L566.4,515.9L576.0,520.7L585.6,525.4L595.2,529.8L604.8,534.0L614.4,538.0L624.0,541.7L633.6,545.1L643.2,548.2L652.8,551.0L662.4,553.4L672.0,555.5L681.6,557.3L691.2,558.8L700.8,559.9L710.4,560.6L720.0,561.1L729.6,561.2L739.2,561.0L748.8,560.5L758.4,559.7L768.0,558.7L777.6,557.5L787.2,556.1L796.8,554.4L806.4,552.7L816.0,550.7L825.6,548.7L835.2,546.6L844.8,544.4L854.4,542.2L864.0,540.0L873.6,537.8L883.2,535.7L892.8,533.6L902.4,531.6L912.0,529.7L921.6,527.8L931.2,526.1L940.8,524.5L950.4,523.1L960.0,521.8L969.6,520.6L979.2,519.5L988.8,518.6L998.4,517.8L1008.0,517.1L1017.6,516.5L1027.2,516.0L1036.8,515.5L1046.4,515.2L1056.0,514.8L1065.6,514.5L1075.2,514.2L1084.8,513.9L1094.4,513.5L1104.0,513.0L1113.6,512.5L1123.2,511.9L1132.8,511.2L1142.4,510.4L1152.0,509.4L1161.6,508.2L1171.2,506.9L1180.8,505.5L1190.4,503.8L1200.0,502.0L1209.6,499.9L1219.2,497.7L1228.8,495.4L1238.4,492.8L1248.0,490.1L1257.6,487.3L1267.2,484.3L1276.8,481.2L1286.4,478.0L1296.0,474.7L1305.6,471.4L1315.2,468.0L1324.8,464.7L1334.4,461.4L1344.0,458.1L1353.6,454.9L1363.2,451.8L1372.8,448.9L1382.4,446.1L1392.0,443.5L1401.6,441.1L1411.2,439.0L1420.8,437.1L1430.4,435.5L1440.0,434.2" fill="none" stroke="#fa8749" stroke-width="1.4" opacity="0.53"/><path d="M0.0,596.0L9.6,593.6L19.2,591.0L28.8,588.3L38.4,585.6L48.0,582.9L57.6,580.1L67.2,577.4L76.8,574.7L86.4,572.1L96.0,569.5L105.6,567.1L115.2,564.8L124.8,562.6L134.4,560.6L144.0,558.7L153.6,557.0L163.2,555.5L172.8,554.1L182.4,552.9L192.0,551.9L201.6,551.0L211.2,550.3L220.8,549.7L230.4,549.2L240.0,548.8L249.6,548.5L259.2,548.3L268.8,548.1L278.4,548.0L288.0,547.9L297.6,547.7L307.2,547.6L316.8,547.4L326.4,547.1L336.0,546.8L345.6,546.3L355.2,545.8L364.8,545.1L374.4,544.3L384.0,543.4L393.6,542.3L403.2,541.0L412.8,539.6L422.4,538.1L432.0,536.4L441.6,534.5L451.2,532.6L460.8,530.5L470.4,528.3L480.0,526.0L489.6,523.7L499.2,521.3L508.8,518.9L518.4,516.5L528.0,514.1L537.6,511.7L547.2,509.5L556.8,507.3L566.4,505.2L576.0,503.3L585.6,501.6L595.2,500.1L604.8,498.8L614.4,497.7L624.0,496.9L633.6,496.4L643.2,496.2L652.8,496.2L662.4,496.6L672.0,497.3L681.6,498.4L691.2,499.7L700.8,501.4L710.4,503.4L720.0,505.7L729.6,508.3L739.2,511.1L748.8,514.3L758.4,517.7L768.0,521.3L777.6,525.1L787.2,529.1L796.8,533.2L806.4,537.4L816.0,541.7L825.6,546.1L835.2,550.5L844.8,554.9L854.4,559.3L864.0,563.5L873.6,567.7L883.2,571.8L892.8,575.7L902.4,579.4L912.0,582.9L921.6,586.2L931.2,589.2L940.8,592.0L950.4,594.5L960.0,596.8L969.6,598.7L979.2,600.4L988.8,601.7L998.4,602.7L1008.0,603.5L1017.6,604.0L1027.2,604.2L1036.8,604.1L1046.4,603.8L1056.0,603.2L1065.6,602.5L1075.2,601.5L1084.8,600.4L1094.4,599.1L1104.0,597.7L1113.6,596.1L1123.2,594.5L1132.8,592.8L1142.4,591.1L1152.0,589.4L1161.6,587.7L1171.2,586.0L1180.8,584.3L1190.4,582.7L1200.0,581.2L1209.6,579.7L1219.2,578.4L1228.8,577.1L1238.4,576.0L1248.0,574.9L1257.6,574.0L1267.2,573.1L1276.8,572.4L1286.4,571.8L1296.0,571.2L1305.6,570.7L1315.2,570.2L1324.8,569.8L1334.4,569.5L1344.0,569.1L1353.6,568.7L1363.2,568.2L1372.8,567.7L1382.4,567.2L1392.0,566.5L1401.6,565.7L1411.2,564.8L1420.8,563.7L1430.4,562.4L1440.0,561.0" fill="none" stroke="#fb834e" stroke-width="1.5" opacity="0.57"/><path d="M0.0,577.3L9.6,581.2L19.2,585.0L28.8,588.9L38.4,592.7L48.0,596.5L57.6,600.2L67.2,603.8L76.8,607.3L86.4,610.6L96.0,613.8L105.6,616.7L115.2,619.5L124.8,622.0L134.4,624.3L144.0,626.4L153.6,628.2L163.2,629.8L172.8,631.1L182.4,632.2L192.0,633.1L201.6,633.7L211.2,634.2L220.8,634.4L230.4,634.4L240.0,634.3L249.6,634.0L259.2,633.5L268.8,633.0L278.4,632.4L288.0,631.7L297.6,630.9L307.2,630.1L316.8,629.4L326.4,628.6L336.0,627.8L345.6,627.1L355.2,626.5L364.8,625.9L374.4,625.4L384.0,625.0L393.6,624.8L403.2,624.6L412.8,624.5L422.4,624.5L432.0,624.7L441.6,624.9L451.2,625.3L460.8,625.7L470.4,626.2L480.0,626.7L489.6,627.3L499.2,627.9L508.8,628.4L518.4,629.0L528.0,629.5L537.6,630.0L547.2,630.3L556.8,630.6L566.4,630.7L576.0,630.7L585.6,630.5L595.2,630.0L604.8,629.4L614.4,628.6L624.0,627.5L633.6,626.1L643.2,624.5L652.8,622.6L662.4,620.4L672.0,617.9L681.6,615.2L691.2,612.1L700.8,608.8L710.4,605.3L720.0,601.5L729.6,597.4L739.2,593.2L748.8,588.8L758.4,584.1L768.0,579.4L777.6,574.5L787.2,569.5L796.8,564.5L806.4,559.4L816.0,554.4L825.6,549.3L835.2,544.4L844.8,539.5L854.4,534.8L864.0,530.2L873.6,525.8L883.2,521.6L892.8,517.6L902.4,513.9L912.0,510.5L921.6,507.3L931.2,504.5L940.8,502.0L950.4,499.9L960.0,498.0L969.6,496.6L979.2,495.4L988.8,494.7L998.4,494.2L1008.0,494.1L1017.6,494.3L1027.2,494.8L1036.8,495.6L1046.4,496.7L1056.0,498.0L1065.6,499.6L1075.2,501.3L1084.8,503.3L1094.4,505.4L1104.0,507.6L1113.6,509.9L1123.2,512.3L1132.8,514.8L1142.4,517.3L1152.0,519.8L1161.6,522.3L1171.2,524.7L1180.8,527.1L1190.4,529.3L1200.0,531.5L1209.6,533.6L1219.2,535.6L1228.8,537.5L1238.4,539.2L1248.0,540.8L1257.6,542.3L1267.2,543.6L1276.8,544.8L1286.4,545.9L1296.0,546.9L1305.6,547.7L1315.2,548.5L1324.8,549.3L1334.4,549.9L1344.0,550.6L1353.6,551.2L1363.2,551.8L1372.8,552.5L1382.4,553.2L1392.0,553.9L1401.6,554.7L1411.2,555.7L1420.8,556.7L1430.4,557.9L1440.0,559.2" fill="none" stroke="#fc7f53" stroke-width="1.6" opacity="0.61"/><path d="M0.0,669.0L9.6,669.7L19.2,670.3L28.8,670.8L38.4,671.1L48.0,671.4L57.6,671.6L67.2,671.7L76.8,671.8L86.4,672.0L96.0,672.1L105.6,672.3L115.2,672.5L124.8,672.8L134.4,673.2L144.0,673.6L153.6,674.2L163.2,674.9L172.8,675.6L182.4,676.5L192.0,677.5L201.6,678.6L211.2,679.8L220.8,681.0L230.4,682.4L240.0,683.8L249.6,685.3L259.2,686.8L268.8,688.3L278.4,689.8L288.0,691.2L297.6,692.6L307.2,694.0L316.8,695.2L326.4,696.4L336.0,697.3L345.6,698.2L355.2,698.8L364.8,699.3L374.4,699.5L384.0,699.5L393.6,699.2L403.2,698.7L412.8,697.9L422.4,696.8L432.0,695.5L441.6,693.9L451.2,692.0L460.8,689.8L470.4,687.3L480.0,684.6L489.6,681.7L499.2,678.5L508.8,675.1L518.4,671.6L528.0,667.8L537.6,664.0L547.2,660.0L556.8,655.9L566.4,651.8L576.0,647.7L585.6,643.6L595.2,639.5L604.8,635.4L614.4,631.5L624.0,627.7L633.6,624.1L643.2,620.7L652.8,617.4L662.4,614.4L672.0,611.7L681.6,609.2L691.2,607.1L700.8,605.2L710.4,603.6L720.0,602.4L729.6,601.5L739.2,601.0L748.8,600.8L758.4,600.9L768.0,601.3L777.6,602.0L787.2,603.1L796.8,604.4L806.4,606.0L816.0,607.8L825.6,609.8L835.2,612.1L844.8,614.5L854.4,617.1L864.0,619.8L873.6,622.6L883.2,625.5L892.8,628.4L902.4,631.3L912.0,634.2L921.6,637.1L931.2,640.0L940.8,642.8L950.4,645.4L960.0,648.0L969.6,650.4L979.2,652.7L988.8,654.9L998.4,656.9L1008.0,658.7L1017.6,660.4L1027.2,661.9L1036.8,663.2L1046.4,664.4L1056.0,665.4L1065.6,666.3L1075.2,667.1L1084.8,667.8L1094.4,668.4L1104.0,668.8L1113.6,669.3L1123.2,669.7L1132.8,670.0L1142.4,670.4L1152.0,670.8L1161.6,671.2L1171.2,671.6L1180.8,672.2L1190.4,672.8L1200.0,673.5L1209.6,674.4L1219.2,675.3L1228.8,676.5L1238.4,677.7L1248.0,679.1L1257.6,680.7L1267.2,682.4L1276.8,684.2L1286.4,686.2L1296.0,688.4L1305.6,690.6L1315.2,693.0L1324.8,695.4L1334.4,698.0L1344.0,700.6L1353.6,703.2L1363.2,705.8L1372.8,708.4L1382.4,711.0L1392.0,713.5L1401.6,715.9L1411.2,718.2L1420.8,720.4L1430.4,722.4L1440.0,724.1" fill="none" stroke="#fc7b58" stroke-width="1.7" opacity="0.66"/><path d="M0.0,648.2L9.6,644.1L19.2,640.1L28.8,636.1L38.4,632.2L48.0,628.3L57.6,624.6L67.2,621.0L76.8,617.7L86.4,614.5L96.0,611.5L105.6,608.8L115.2,606.4L124.8,604.3L134.4,602.5L144.0,601.0L153.6,599.9L163.2,599.1L172.8,598.7L182.4,598.7L192.0,599.0L201.6,599.7L211.2,600.8L220.8,602.2L230.4,603.9L240.0,606.0L249.6,608.3L259.2,611.0L268.8,613.9L278.4,617.1L288.0,620.5L297.6,624.0L307.2,627.8L316.8,631.6L326.4,635.6L336.0,639.6L345.6,643.7L355.2,647.8L364.8,651.9L374.4,656.0L384.0,660.0L393.6,663.9L403.2,667.7L412.8,671.4L422.4,675.0L432.0,678.4L441.6,681.6L451.2,684.6L460.8,687.5L470.4,690.1L480.0,692.6L489.6,694.9L499.2,697.0L508.8,698.9L518.4,700.6L528.0,702.2L537.6,703.6L547.2,704.9L556.8,706.1L566.4,707.2L576.0,708.2L585.6,709.1L595.2,710.0L604.8,710.8L614.4,711.7L624.0,712.6L633.6,713.5L643.2,714.4L652.8,715.5L662.4,716.6L672.0,717.8L681.6,719.1L691.2,720.5L700.8,722.1L710.4,723.7L720.0,725.5L729.6,727.4L739.2,729.5L748.8,731.6L758.4,733.9L768.0,736.2L777.6,738.7L787.2,741.2L796.8,743.7L806.4,746.3L816.0,748.9L825.6,751.5L835.2,754.0L844.8,756.5L854.4,758.9L864.0,761.2L873.6,763.3L883.2,765.3L892.8,767.1L902.4,768.7L912.0,770.0L921.6,771.1L931.2,771.9L940.8,772.5L950.4,772.8L960.0,772.7L969.6,772.3L979.2,771.6L988.8,770.6L998.4,769.3L1008.0,767.6L1017.6,765.6L1027.2,763.4L1036.8,760.8L1046.4,757.9L1056.0,754.8L1065.6,751.5L1075.2,747.9L1084.8,744.1L1094.4,740.2L1104.0,736.1L1113.6,731.9L1123.2,727.7L1132.8,723.4L1142.4,719.0L1152.0,714.7L1161.6,710.5L1171.2,706.3L1180.8,702.2L1190.4,698.3L1200.0,694.5L1209.6,690.9L1219.2,687.5L1228.8,684.4L1238.4,681.5L1248.0,678.8L1257.6,676.5L1267.2,674.4L1276.8,672.6L1286.4,671.1L1296.0,669.9L1305.6,669.1L1315.2,668.5L1324.8,668.2L1334.4,668.1L1344.0,668.4L1353.6,668.8L1363.2,669.6L1372.8,670.5L1382.4,671.6L1392.0,672.9L1401.6,674.3L1411.2,675.9L1420.8,677.5L1430.4,679.2L1440.0,681.0" fill="none" stroke="#fd775d" stroke-width="1.8" opacity="0.70"/><path d="M0.0,775.3L9.6,774.2L19.2,772.9L28.8,771.2L38.4,769.3L48.0,767.0L57.6,764.5L67.2,761.8L76.8,758.8L86.4,755.5L96.0,752.0L105.6,748.3L115.2,744.4L124.8,740.4L134.4,736.2L144.0,731.9L153.6,727.6L163.2,723.2L172.8,718.8L182.4,714.4L192.0,710.0L201.6,705.7L211.2,701.6L220.8,697.5L230.4,693.7L240.0,690.0L249.6,686.5L259.2,683.3L268.8,680.4L278.4,677.7L288.0,675.4L297.6,673.3L307.2,671.6L316.8,670.2L326.4,669.1L336.0,668.4L345.6,668.1L355.2,668.0L364.8,668.3L374.4,668.9L384.0,669.8L393.6,671.0L403.2,672.5L412.8,674.2L422.4,676.2L432.0,678.3L441.6,680.7L451.2,683.2L460.8,685.8L470.4,688.6L480.0,691.4L489.6,694.3L499.2,697.2L508.8,700.2L518.4,703.1L528.0,706.0L537.6,708.8L547.2,711.5L556.8,714.2L566.4,716.7L576.0,719.2L585.6,721.5L595.2,723.7L604.8,725.7L614.4,727.6L624.0,729.4L633.6,731.1L643.2,732.6L652.8,734.0L662.4,735.3L672.0,736.6L681.6,737.7L691.2,738.8L700.8,739.8L710.4,740.9L720.0,741.9L729.6,742.9L739.2,744.0L748.8,745.1L758.4,746.3L768.0,747.5L777.6,748.9L787.2,750.4L796.8,752.1L806.4,753.9L816.0,755.8L825.6,757.9L835.2,760.2L844.8,762.7L854.4,765.4L864.0,768.2L873.6,771.2L883.2,774.3L892.8,777.6L902.4,781.1L912.0,784.7L921.6,788.3L931.2,792.1L940.8,795.9L950.4,799.8L960.0,803.7L969.6,807.6L979.2,811.4L988.8,815.2L998.4,818.9L1008.0,822.5L1017.6,825.9L1027.2,829.2L1036.8,832.2L1046.4,835.0L1056.0,837.6L1065.6,839.9L1075.2,841.9L1084.8,843.6L1094.4,845.0L1104.0,846.0L1113.6,846.7L1123.2,847.0L1132.8,847.0L1142.4,846.6L1152.0,845.8L1161.6,844.7L1171.2,843.2L1180.8,841.5L1190.4,839.3L1200.0,836.9L1209.6,834.2L1219.2,831.3L1228.8,828.1L1238.4,824.7L1248.0,821.1L1257.6,817.3L1267.2,813.4L1276.8,809.5L1286.4,805.4L1296.0,801.4L1305.6,797.3L1315.2,793.2L1324.8,789.2L1334.4,785.3L1344.0,781.5L1353.6,777.8L1363.2,774.2L1372.8,770.9L1382.4,767.7L1392.0,764.7L1401.6,761.9L1411.2,759.4L1420.8,757.1L1430.4,755.0L1440.0,753.2" fill="none" stroke="#fe7361" stroke-width="2.0" opacity="0.74"/><path d="M0.0,812.4L9.6,812.2L19.2,812.1L28.8,812.0L38.4,812.1L48.0,812.3L57.6,812.6L67.2,813.1L76.8,813.6L86.4,814.3L96.0,815.1L105.6,816.0L115.2,817.0L124.8,818.0L134.4,819.2L144.0,820.4L153.6,821.6L163.2,822.9L172.8,824.2L182.4,825.4L192.0,826.6L201.6,827.7L211.2,828.8L220.8,829.7L230.4,830.5L240.0,831.1L249.6,831.6L259.2,831.8L268.8,831.9L278.4,831.7L288.0,831.3L297.6,830.6L307.2,829.6L316.8,828.4L326.4,826.9L336.0,825.1L345.6,823.1L355.2,820.7L364.8,818.2L374.4,815.3L384.0,812.2L393.6,808.9L403.2,805.4L412.8,801.8L422.4,797.9L432.0,794.0L441.6,789.9L451.2,785.7L460.8,781.5L470.4,777.3L480.0,773.1L489.6,768.9L499.2,764.8L508.8,760.9L518.4,757.0L528.0,753.4L537.6,749.9L547.2,746.6L556.8,743.6L566.4,740.8L576.0,738.4L585.6,736.2L595.2,734.4L604.8,732.8L614.4,731.6L624.0,730.8L633.6,730.3L643.2,730.1L652.8,730.3L662.4,730.8L672.0,731.6L681.6,732.7L691.2,734.1L700.8,735.8L710.4,737.8L720.0,739.9L729.6,742.3L739.2,744.9L748.8,747.7L758.4,750.5L768.0,753.5L777.6,756.6L787.2,759.7L796.8,762.9L806.4,766.1L816.0,769.2L825.6,772.3L835.2,775.4L844.8,778.4L854.4,781.3L864.0,784.0L873.6,786.7L883.2,789.2L892.8,791.6L902.4,793.8L912.0,795.9L921.6,797.9L931.2,799.7L940.8,801.3L950.4,802.9L960.0,804.3L969.6,805.6L979.2,806.9L988.8,808.0L998.4,809.1L1008.0,810.2L1017.6,811.2L1027.2,812.2L1036.8,813.3L1046.4,814.3L1056.0,815.5L1065.6,816.7L1075.2,818.0L1084.8,819.4L1094.4,820.9L1104.0,822.5L1113.6,824.3L1123.2,826.3L1132.8,828.4L1142.4,830.7L1152.0,833.1L1161.6,835.7L1171.2,838.5L1180.8,841.4L1190.4,844.5L1200.0,847.7L1209.6,851.0L1219.2,854.4L1228.8,857.9L1238.4,861.4L1248.0,865.0L1257.6,868.6L1267.2,872.2L1276.8,875.8L1286.4,879.3L1296.0,882.7L1305.6,886.0L1315.2,889.2L1324.8,892.1L1334.4,894.9L1344.0,897.4L1353.6,899.7L1363.2,901.8L1372.8,903.5L1382.4,904.9L1392.0,906.0L1401.6,906.7L1411.2,907.2L1420.8,907.2L1430.4,906.9L1440.0,906.2" fill="none" stroke="#fe6f66" stroke-width="2.1" opacity="0.79"/><path d="M0.0,859.9L9.6,861.8L19.2,863.6L28.8,865.2L38.4,866.8L48.0,868.1L57.6,869.4L67.2,870.5L76.8,871.5L86.4,872.3L96.0,873.1L105.6,873.8L115.2,874.4L124.8,874.9L134.4,875.4L144.0,875.9L153.6,876.3L163.2,876.8L172.8,877.3L182.4,877.9L192.0,878.5L201.6,879.2L211.2,880.1L220.8,881.0L230.4,882.1L240.0,883.4L249.6,884.8L259.2,886.4L268.8,888.2L278.4,890.1L288.0,892.3L297.6,894.6L307.2,897.0L316.8,899.7L326.4,902.5L336.0,905.5L345.6,908.6L355.2,911.8L364.8,915.1L374.4,918.4L384.0,921.8L393.6,925.3L403.2,928.7L412.8,932.1L422.4,935.5L432.0,938.7L441.6,941.9L451.2,944.9L460.8,947.7L470.4,950.3L480.0,952.7L489.6,954.9L499.2,956.8L508.8,958.4L518.4,959.6L528.0,960.6L537.6,961.2L547.2,961.5L556.8,961.4L566.4,960.9L576.0,960.1L585.6,958.9L595.2,957.4L604.8,955.5L614.4,953.2L624.0,950.7L633.6,947.8L643.2,944.6L652.8,941.2L662.4,937.5L672.0,933.6L681.6,929.5L691.2,925.2L700.8,920.8L710.4,916.3L720.0,911.7L729.6,907.1L739.2,902.4L748.8,897.8L758.4,893.2L768.0,888.7L777.6,884.3L787.2,879.9L796.8,875.8L806.4,871.8L816.0,867.9L825.6,864.3L835.2,860.9L844.8,857.6L854.4,854.6L864.0,851.9L873.6,849.3L883.2,847.0L892.8,845.0L902.4,843.1L912.0,841.4L921.6,840.0L931.2,838.7L940.8,837.6L950.4,836.7L960.0,835.8L969.6,835.1L979.2,834.5L988.8,834.0L998.4,833.5L1008.0,833.1L1017.6,832.7L1027.2,832.2L1036.8,831.8L1046.4,831.3L1056.0,830.7L1065.6,830.1L1075.2,829.4L1084.8,828.5L1094.4,827.6L1104.0,826.6L1113.6,825.5L1123.2,824.3L1132.8,822.9L1142.4,821.5L1152.0,820.0L1161.6,818.3L1171.2,816.7L1180.8,814.9L1190.4,813.1L1200.0,811.3L1209.6,809.5L1219.2,807.7L1228.8,805.9L1238.4,804.2L1248.0,802.6L1257.6,801.1L1267.2,799.7L1276.8,798.4L1286.4,797.4L1296.0,796.5L1305.6,795.9L1315.2,795.4L1324.8,795.3L1334.4,795.4L1344.0,795.8L1353.6,796.4L1363.2,797.4L1372.8,798.6L1382.4,800.2L1392.0,802.1L1401.6,804.2L1411.2,806.6L1420.8,809.3L1430.4,812.3L1440.0,815.5" fill="none" stroke="#ff6b6b" stroke-width="2.2" opacity="0.83"/></svg>