<svg xmlns="http://www.w3.org/2000/svg" viewBox="0 0 1440 900"><rect width="1440" height="900" fill="#0D1B2A"/><path d="M0,900 L0,185.40000000000006 Q0.0,253.7 6.0,253.1 Q12.0,252.4 18.0,251.9 Q24.0,251.3 30.0,250.7 Q36.0,250.2 42.0,249.6 Q48.0,249.1 54.0,248.6 Q60.0,248.1 66.0,247.6 Q72.0,247.2 78.0,246.7 Q84.0,246.3 90.0,245.9 Q96.0,245.5 102.0,245.1 Q108.0,244.7 114.0,244.4 Q120.0,244.0 126.0,243.7 Q132.0,243.4 138.0,243.1 Q144.0,242.8 150.0,242.5 Q156.0,242.3 162.0,242.0 Q168.0,241.8 174.0,241.5 Q180.0,241.3 186.0,241.1 Q192.0,240.9 198.0,240.7 Q204.0,240.5 210.0,240.3 Q216.0,240.1 222.0,239.9 Q228.0,239.8 234.0,239.6 Q240.0,239.4 246.0,239.2 Q252.0,239.1 258.0,238.9 Q264.0,238.7 270.0,238.5 Q276.0,238.3 282.0,238.2 Q288.0,238.0 294.0,237.7 Q300.0,237.5 306.0,237.3 Q312.0,237.1 318.0,236.8 Q324.0,236.6 330.0,236.3 Q336.0,236.0 342.0,235.7 Q348.0,235.4 354.0,235.0 Q360.0,234.6 366.0,234.2 Q372.0,233.9 378.0,233.4 Q384.0,233.0 390.0,232.5 Q396.0,232.0 402.0,231.5 Q408.0,230.9 414.0,230.3 Q420.0,229.7 426.0,229.1 Q432.0,228.4 438.0,227.7 Q444.0,227.0 450.0,226.2 Q456.0,225.4 462.0,224.5 Q468.0,223.7 474.0,222.8 Q480.0,221.8 486.0,220.8 Q492.0,219.8 498.0,218.8 Q504.0,217.7 510.0,216.6 Q516.0,215.4 522.0,214.2 Q528.0,213.0 534.0,211.7 Q540.0,210.4 546.0,209.0 Q552.0,207.6 558.0,206.1 Q564.0,204.7 570.0,203.1 Q576.0,201.6 582.0,200.0 Q588.0,198.4 594.0,196.7 Q600.0,195.0 606.0,193.2 Q612.0,191.5 618.0,189.6 Q624.0,187.8 630.0,185.9 Q636.0,184.0 642.0,182.0 Q648.0,180.1 654.0,178.0 Q660.0,176.0 666.0,173.9 Q672.0,171.8 678.0,169.7 Q684.0,167.5 690.0,165.3 Q696.0,163.1 702.0,160.9 Q708.0,158.6 714.0,156.3 Q720.0,154.0 726.0,151.7 Q732.0,149.4 738.0,147.0 Q744.0,144.7 750.0,142.3 Q756.0,139.9 762.0,137.5 Q768.0,135.1 774.0,132.7 Q780.0,130.2 786.0,127.8 Q792.0,125.4 798.0,123.0 Q804.0,120.5 810.0,118.1 Q816.0,115.7 822.0,113.3 Q828.0,110.9 834.0,108.5 Q840.0,106.1 846.0,103.8 Q852.0,101.4 858.0,99.1 Q864.0,96.8 870.0,94.5 Q876.0,92.2 882.0,90.0 Q888.0,87.8 894.0,85.6 Q900.0,83.5 906.0,81.4 Q912.0,79.3 918.0,77.2 Q924.0,75.2 930.0,73.2 Q936.0,71.3 942.0,69.4 Q948.0,67.6 954.0,65.8 Q960.0,64.0 966.0,62.3 Q972.0,60.7 978.0,59.1 Q984.0,57.5 990.0,56.1 Q996.0,54.6 1002.0,53.3 Q1008.0,51.9 1014.0,50.7 Q1020.0,49.5 1026.0,48.4 Q1032.0,47.3 1038.0,46.4 Q1044.0,45.4 1050.0,44.6 Q1056.0,43.7 1062.0,43.1 Q1068.0,42.4 1074.0,41.8 Q1080.0,41.3 1086.0,40.9 Q1092.0,40.5 1098.0,40.3 Q1104.0,40.0 1110.0,39.9 Q1116.0,39.8 1122.0,39.9 Q1128.0,39.9 1134.0,40.2 Q1140.0,40.4 1146.0,40.7 Q1152.0,41.1 1158.0,41.6 Q1164.0,42.2 1170.0,42.8 Q1176.0,43.5 1182.0,44.3 Q1188.0,45.2 1194.0,46.2 Q1200.0,47.1 1206.0,48.3 Q1212.0,49.4 1218.0,50.7 Q1224.0,52.0 1230.0,53.4 Q1236.0,54.9 1242.0,56.4 Q1248.0,58.0 1254.0,59.7 Q1260.0,61.4 1266.0,63.3 Q1272.0,65.1 1278.0,67.1 Q1284.0,69.1 1290.0,71.2 Q1296.0,73.3 1302.0,75.5 Q1308.0,77.8 1314.0,80.1 Q1320.0,82.4 1326.0,84.9 Q1332.0,87.3 1338.0,89.9 Q1344.0,92.4 1350.0,95.1 Q1356.0,97.7 1362.0,100.5 Q1368.0,103.2 1374.0,106.0 Q1380.0,108.8 1386.0,111.7 Q1392.0,114.6 1398.0,117.6 Q1404.0,120.5 1410.0,123.5 Q1416.0,126.6 1422.0,129.6 Q1428.0,132.7 1434.0,135.8 L1440,900 Z" fill="#1b6ca8" opacity="0.65"/><path d="M0,900 L0,313.92 Q0.0,386.1 6.0,385.9 Q12.0,385.7 18.0,385.6 Q24.0,385.4 30.0,385.2 Q36.0,385.0 42.0,384.8 Q48.0,384.6 54.0,384.4 Q60.0,384.2 66.0,384.0 Q72.0,383.8 78.0,383.6 Q84.0,383.4 90.0,383.2 Q96.0,383.0 102.0,382.8 Q108.0,382.7 114.0,382.5 Q120.0,382.4 126.0,382.2 Q132.0,382.1 138.0,382.0 Q144.0,381.8 150.0,381.7 Q156.0,381.6 162.0,381.6 Q168.0,381.5 174.0,381.5 Q180.0,381.4 186.0,381.4 Q192.0,381.4 198.0,381.4 Q204.0,381.4 210.0,381.4 Q216.0,381.4 222.0,381.5 Q228.0,381.6 234.0,381.6 Q240.0,381.7 246.0,381.9 Q252.0,382.0 258.0,382.1 Q264.0,382.2 270.0,382.4 Q276.0,382.6 282.0,382.8 Q288.0,382.9 294.0,383.1 Q300.0,383.4 306.0,383.6 Q312.0,383.8 318.0,384.0 Q324.0,384.3 330.0,384.5 Q336.0,384.8 342.0,385.0 Q348.0,385.3 354.0,385.6 Q360.0,385.8 366.0,386.1 Q372.0,386.4 378.0,386.7 Q384.0,386.9 390.0,387.2 Q396.0,387.5 402.0,387.7 Q408.0,388.0 414.0,388.2 Q420.0,388.5 426.0,388.7 Q432.0,388.9 438.0,389.1 Q444.0,389.3 450.0,389.5 Q456.0,389.7 462.0,389.8 Q468.0,389.9 474.0,390.0 Q480.0,390.2 486.0,390.2 Q492.0,390.3 498.0,390.3 Q504.0,390.3 510.0,390.3 Q516.0,390.3 522.0,390.2 Q528.0,390.1 534.0,389.9 Q540.0,389.8 546.0,389.6 Q552.0,389.4 558.0,389.1 Q564.0,388.8 570.0,388.5 Q576.0,388.1 582.0,387.7 Q588.0,387.3 594.0,386.8 Q600.0,386.3 606.0,385.7 Q612.0,385.1 618.0,384.4 Q624.0,383.8 630.0,383.0 Q636.0,382.2 642.0,381.4 Q648.0,380.5 654.0,379.6 Q660.0,378.7 666.0,377.6 Q672.0,376.6 678.0,375.4 Q684.0,374.3 690.0,373.1 Q696.0,371.9 702.0,370.5 Q708.0,369.2 714.0,367.8 Q720.0,366.4 726.0,364.9 Q732.0,363.3 738.0,361.7 Q744.0,360.1 750.0,358.4 Q756.0,356.7 762.0,354.9 Q768.0,353.1 774.0,351.2 Q780.0,349.3 786.0,347.3 Q792.0,345.3 798.0,343.2 Q804.0,341.2 810.0,339.0 Q816.0,336.9 822.0,334.6 Q828.0,332.4 834.0,330.1 Q840.0,327.8 846.0,325.4 Q852.0,323.0 858.0,320.5 Q864.0,318.1 870.0,315.6 Q876.0,313.1 882.0,310.5 Q888.0,307.9 894.0,305.3 Q900.0,302.7 906.0,300.0 Q912.0,297.3 918.0,294.6 Q924.0,291.9 930.0,289.2 Q936.0,286.4 942.0,283.7 Q948.0,280.9 954.0,278.1 Q960.0,275.4 966.0,272.6 Q972.0,269.8 978.0,267.0 Q984.0,264.2 990.0,261.4 Q996.0,258.6 1002.0,255.8 Q1008.0,253.0 1014.0,250.3 Q1020.0,247.5 1026.0,244.8 Q1032.0,242.0 1038.0,239.3 Q1044.0,236.6 1050.0,234.0 Q1056.0,231.3 1062.0,228.7 Q1068.0,226.1 1074.0,223.6 Q1080.0,221.0 1086.0,218.5 Q1092.0,216.1 1098.0,213.6 Q1104.0,211.2 1110.0,208.9 Q1116.0,206.6 1122.0,204.3 Q1128.0,202.1 1134.0,200.0 Q1140.0,197.8 1146.0,195.8 Q1152.0,193.7 1158.0,191.8 Q1164.0,189.9 1170.0,188.1 Q1176.0,186.2 1182.0,184.5 Q1188.0,182.8 1194.0,181.3 Q1200.0,179.7 1206.0,178.2 Q1212.0,176.8 1218.0,175.5 Q1224.0,174.2 1230.0,173.0 Q1236.0,171.9 1242.0,170.8 Q1248.0,169.8 1254.0,168.9 Q1260.0,168.1 1266.0,167.3 Q1272.0,166.6 1278.0,166.0 Q1284.0,165.5 1290.0,165.1 Q1296.0,164.6 1302.0,164.4 Q1308.0,164.1 1314.0,164.0 Q1320.0,163.9 1326.0,164.0 Q1332.0,164.0 1338.0,164.3 Q1344.0,164.5 1350.0,164.8 Q1356.0,165.2 1362.0,165.8 Q1368.0,166.3 1374.0,167.0 Q1380.0,167.7 1386.0,168.5 Q1392.0,169.4 1398.0,170.4 Q1404.0,171.4 1410.0,172.5 Q1416.0,173.7 1422.0,174.9 Q1428.0,176.2 1434.0,177.7 L1440,900 Z" fill="#217cb8" opacity="0.72"/><path d="M0,900 L0,442.44000000000005 Q0.0,493.4 6.0,491.9 Q12.0,490.4 18.0,488.9 Q24.0,487.5 30.0,486.0 Q36.0,484.6 42.0,483.3 Q48.0,481.9 54.0,480.5 Q60.0,479.2 66.0,477.9 Q72.0,476.6 78.0,475.4 Q84.0,474.2 90.0,473.0 Q96.0,471.8 102.0,470.7 Q108.0,469.5 114.0,468.4 Q120.0,467.3 126.0,466.3 Q132.0,465.3 138.0,464.3 Q144.0,463.3 150.0,462.3 Q156.0,461.4 162.0,460.5 Q168.0,459.6 174.0,458.7 Q180.0,457.9 186.0,457.1 Q192.0,456.3 198.0,455.5 Q204.0,454.7 210.0,454.0 Q216.0,453.3 222.0,452.6 Q228.0,451.9 234.0,451.2 Q240.0,450.6 246.0,450.0 Q252.0,449.3 258.0,448.7 Q264.0,448.1 270.0,447.6 Q276.0,447.0 282.0,446.4 Q288.0,445.9 294.0,445.3 Q300.0,444.8 306.0,444.3 Q312.0,443.8 318.0,443.3 Q324.0,442.7 330.0,442.2 Q336.0,441.7 342.0,441.2 Q348.0,440.7 354.0,440.2 Q360.0,439.7 366.0,439.2 Q372.0,438.7 378.0,438.1 Q384.0,437.6 390.0,437.1 Q396.0,436.5 402.0,436.0 Q408.0,435.4 414.0,434.9 Q420.0,434.3 426.0,433.7 Q432.0,433.1 438.0,432.4 Q444.0,431.8 450.0,431.2 Q456.0,430.5 462.0,429.8 Q468.0,429.1 474.0,428.4 Q480.0,427.6 486.0,426.9 Q492.0,426.1 498.0,425.3 Q504.0,424.5 510.0,423.6 Q516.0,422.7 522.0,421.8 Q528.0,420.9 534.0,420.0 Q540.0,419.0 546.0,418.0 Q552.0,417.0 558.0,416.0 Q564.0,415.0 570.0,413.9 Q576.0,412.8 582.0,411.6 Q588.0,410.5 594.0,409.3 Q600.0,408.1 606.0,406.9 Q612.0,405.6 618.0,404.4 Q624.0,403.1 630.0,401.8 Q636.0,400.4 642.0,399.1 Q648.0,397.7 654.0,396.3 Q660.0,394.9 666.0,393.4 Q672.0,392.0 678.0,390.5 Q684.0,389.0 690.0,387.5 Q696.0,386.0 702.0,384.4 Q708.0,382.9 714.0,381.3 Q720.0,379.8 726.0,378.2 Q732.0,376.6 738.0,375.0 Q744.0,373.4 750.0,371.8 Q756.0,370.2 762.0,368.6 Q768.0,366.9 774.0,365.3 Q780.0,363.7 786.0,362.1 Q792.0,360.5 798.0,358.9 Q804.0,357.3 810.0,355.7 Q816.0,354.1 822.0,352.6 Q828.0,351.0 834.0,349.5 Q840.0,347.9 846.0,346.4 Q852.0,344.9 858.0,343.5 Q864.0,342.0 870.0,340.6 Q876.0,339.2 882.0,337.8 Q888.0,336.5 894.0,335.2 Q900.0,333.9 906.0,332.6 Q912.0,331.4 918.0,330.2 Q924.0,329.1 930.0,328.0 Q936.0,326.9 942.0,325.9 Q948.0,324.9 954.0,324.0 Q960.0,323.1 966.0,322.3 Q972.0,321.5 978.0,320.7 Q984.0,320.0 990.0,319.4 Q996.0,318.8 1002.0,318.3 Q1008.0,317.8 1014.0,317.4 Q1020.0,317.0 1026.0,316.7 Q1032.0,316.5 1038.0,316.3 Q1044.0,316.2 1050.0,316.2 Q1056.0,316.1 1062.0,316.2 Q1068.0,316.3 1074.0,316.6 Q1080.0,316.8 1086.0,317.2 Q1092.0,317.6 1098.0,318.1 Q1104.0,318.6 1110.0,319.2 Q1116.0,319.9 1122.0,320.6 Q1128.0,321.4 1134.0,322.3 Q1140.0,323.3 1146.0,324.3 Q1152.0,325.4 1158.0,326.6 Q1164.0,327.8 1170.0,329.1 Q1176.0,330.4 1182.0,331.9 Q1188.0,333.4 1194.0,335.0 Q1200.0,336.6 1206.0,338.3 Q1212.0,340.1 1218.0,341.9 Q1224.0,343.8 1230.0,345.8 Q1236.0,347.8 1242.0,349.9 Q1248.0,352.0 1254.0,354.2 Q1260.0,356.5 1266.0,358.8 Q1272.0,361.2 1278.0,363.6 Q1284.0,366.1 1290.0,368.6 Q1296.0,371.2 1302.0,373.9 Q1308.0,376.5 1314.0,379.3 Q1320.0,382.0 1326.0,384.8 Q1332.0,387.7 1338.0,390.6 Q1344.0,393.5 1350.0,396.5 Q1356.0,399.5 1362.0,402.5 Q1368.0,405.6 1374.0,408.7 Q1380.0,411.8 1386.0,414.9 Q1392.0,418.1 1398.0,421.3 Q1404.0,424.5 1410.0,427.7 Q1416.0,430.9 1422.0,434.2 Q1428.0,437.4 1434.0,440.7 L1440,900 Z" fill="#278cc8" opacity="0.79"/><path d="M0,900 L0,570.96 Q0.0,652.9 6.0,650.0 Q12.0,647.2 18.0,644.3 Q24.0,641.4 30.0,638.5 Q36.0,635.5 42.0,632.5 Q48.0,629.5 54.0,626.4 Q60.0,623.4 66.0,620.3 Q72.0,617.2 78.0,614.0 Q84.0,610.9 90.0,607.8 Q96.0,604.6 102.0,601.4 Q108.0,598.3 114.0,595.1 Q120.0,591.9 126.0,588.8 Q132.0,585.6 138.0,582.5 Q144.0,579.3 150.0,576.2 Q156.0,573.0 162.0,569.9 Q168.0,566.8 174.0,563.7 Q180.0,560.7 186.0,557.7 Q192.0,554.6 198.0,551.6 Q204.0,548.7 210.0,545.8 Q216.0,542.8 222.0,540.0 Q228.0,537.1 234.0,534.3 Q240.0,531.6 246.0,528.9 Q252.0,526.2 258.0,523.5 Q264.0,520.9 270.0,518.4 Q276.0,515.8 282.0,513.4 Q288.0,511.0 294.0,508.6 Q300.0,506.3 306.0,504.1 Q312.0,501.8 318.0,499.7 Q324.0,497.6 330.0,495.6 Q336.0,493.6 342.0,491.7 Q348.0,489.8 354.0,488.0 Q360.0,486.2 366.0,484.5 Q372.0,482.9 378.0,481.3 Q384.0,479.8 390.0,478.4 Q396.0,476.9 402.0,475.6 Q408.0,474.3 414.0,473.2 Q420.0,472.0 426.0,471.0 Q432.0,469.9 438.0,469.0 Q444.0,468.1 450.0,467.3 Q456.0,466.5 462.0,465.8 Q468.0,465.1 474.0,464.5 Q480.0,464.0 486.0,463.5 Q492.0,463.1 498.0,462.8 Q504.0,462.5 510.0,462.2 Q516.0,462.0 522.0,461.9 Q528.0,461.8 534.0,461.8 Q540.0,461.8 546.0,461.9 Q552.0,462.0 558.0,462.2 Q564.0,462.4 570.0,462.7 Q576.0,463.0 582.0,463.4 Q588.0,463.8 594.0,464.2 Q600.0,464.7 606.0,465.3 Q612.0,465.8 618.0,466.4 Q624.0,467.0 630.0,467.7 Q636.0,468.4 642.0,469.2 Q648.0,469.9 654.0,470.7 Q660.0,471.5 666.0,472.4 Q672.0,473.3 678.0,474.2 Q684.0,475.1 690.0,476.0 Q696.0,477.0 702.0,478.0 Q708.0,479.0 714.0,480.0 Q720.0,481.0 726.0,482.0 Q732.0,483.1 738.0,484.1 Q744.0,485.2 750.0,486.2 Q756.0,487.3 762.0,488.4 Q768.0,489.5 774.0,490.6 Q780.0,491.7 786.0,492.7 Q792.0,493.8 798.0,494.9 Q804.0,496.0 810.0,497.0 Q816.0,498.1 822.0,499.2 Q828.0,500.2 834.0,501.3 Q840.0,502.3 846.0,503.3 Q852.0,504.4 858.0,505.4 Q864.0,506.4 870.0,507.3 Q876.0,508.3 882.0,509.2 Q888.0,510.2 894.0,511.1 Q900.0,512.0 906.0,512.9 Q912.0,513.8 918.0,514.6 Q924.0,515.5 930.0,516.3 Q936.0,517.1 942.0,517.9 Q948.0,518.6 954.0,519.4 Q960.0,520.1 966.0,520.8 Q972.0,521.5 978.0,522.2 Q984.0,522.9 990.0,523.5 Q996.0,524.2 1002.0,524.8 Q1008.0,525.4 1014.0,525.9 Q1020.0,526.5 1026.0,527.0 Q1032.0,527.6 1038.0,528.1 Q1044.0,528.6 1050.0,529.1 Q1056.0,529.6 1062.0,530.0 Q1068.0,530.5 1074.0,530.9 Q1080.0,531.4 1086.0,531.8 Q1092.0,532.2 1098.0,532.6 Q1104.0,533.0 1110.0,533.4 Q1116.0,533.8 1122.0,534.2 Q1128.0,534.6 1134.0,534.9 Q1140.0,535.3 1146.0,535.7 Q1152.0,536.1 1158.0,536.4 Q1164.0,536.8 1170.0,537.2 Q1176.0,537.6 1182.0,538.0 Q1188.0,538.4 1194.0,538.8 Q1200.0,539.2 1206.0,539.7 Q1212.0,540.1 1218.0,540.6 Q1224.0,541.0 1230.0,541.5 Q1236.0,542.0 1242.0,542.5 Q1248.0,543.0 1254.0,543.6 Q1260.0,544.1 1266.0,544.7 Q1272.0,545.3 1278.0,545.9 Q1284.0,546.5 1290.0,547.2 Q1296.0,547.9 1302.0,548.6 Q1308.0,549.4 1314.0,550.1 Q1320.0,550.9 1326.0,551.7 Q1332.0,552.6 1338.0,553.5 Q1344.0,554.3 1350.0,555.3 Q1356.0,556.2 1362.0,557.3 Q1368.0,558.3 1374.0,559.3 Q1380.0,560.4 1386.0,561.5 Q1392.0,562.7 1398.0,563.9 Q1404.0,565.1 1410.0,566.4 Q1416.0,567.6 1422.0,569.0 Q1428.0,570.3 1434.0,571.7 L1440,900 Z" fill="#2c9dd8" opacity="0.86"/><path d="M0,900 L0,699.48 Q0.0,821.0 6.0,822.6 Q12.0,824.2 18.0,825.7 Q24.0,827.1 30.0,828.5 Q36.0,829.8 42.0,831.0 Q48.0,832.2 54.0,833.2 Q60.0,834.3 66.0,835.1 Q72.0,836.0 78.0,836.8 Q84.0,837.5 90.0,838.1 Q96.0,838.7 102.0,839.1 Q108.0,839.5 114.0,839.8 Q120.0,840.1 126.0,840.3 Q132.0,840.4 138.0,840.4 Q144.0,840.4 150.0,840.2 Q156.0,840.0 162.0,839.7 Q168.0,839.4 174.0,839.0 Q180.0,838.6 186.0,838.0 Q192.0,837.4 198.0,836.7 Q204.0,836.0 210.0,835.1 Q216.0,834.3 222.0,833.3 Q228.0,832.3 234.0,831.3 Q240.0,830.2 246.0,829.0 Q252.0,827.8 258.0,826.5 Q264.0,825.1 270.0,823.7 Q276.0,822.3 282.0,820.8 Q288.0,819.3 294.0,817.7 Q300.0,816.1 306.0,814.4 Q312.0,812.7 318.0,810.9 Q324.0,809.1 330.0,807.3 Q336.0,805.5 342.0,803.5 Q348.0,801.6 354.0,799.7 Q360.0,797.7 366.0,795.7 Q372.0,793.7 378.0,791.6 Q384.0,789.5 390.0,787.4 Q396.0,785.3 402.0,783.2 Q408.0,781.1 414.0,778.9 Q420.0,776.8 426.0,774.6 Q432.0,772.4 438.0,770.2 Q444.0,768.1 450.0,765.9 Q456.0,763.7 462.0,761.5 Q468.0,759.3 474.0,757.1 Q480.0,755.0 486.0,752.8 Q492.0,750.6 498.0,748.5 Q504.0,746.4 510.0,744.3 Q516.0,742.1 522.0,740.1 Q528.0,738.0 534.0,735.9 Q540.0,733.9 546.0,731.9 Q552.0,729.9 558.0,727.9 Q564.0,725.9 570.0,724.0 Q576.0,722.1 582.0,720.3 Q588.0,718.4 594.0,716.6 Q600.0,714.8 606.0,713.1 Q612.0,711.3 618.0,709.6 Q624.0,707.9 630.0,706.3 Q636.0,704.7 642.0,703.1 Q648.0,701.6 654.0,700.1 Q660.0,698.6 666.0,697.2 Q672.0,695.8 678.0,694.4 Q684.0,693.1 690.0,691.8 Q696.0,690.5 702.0,689.3 Q708.0,688.0 714.0,686.9 Q720.0,685.7 726.0,684.7 Q732.0,683.6 738.0,682.5 Q744.0,681.5 750.0,680.6 Q756.0,679.6 762.0,678.7 Q768.0,677.8 774.0,677.0 Q780.0,676.1 786.0,675.4 Q792.0,674.6 798.0,673.8 Q804.0,673.1 810.0,672.4 Q816.0,671.8 822.0,671.1 Q828.0,670.5 834.0,669.9 Q840.0,669.3 846.0,668.8 Q852.0,668.3 858.0,667.8 Q864.0,667.3 870.0,666.8 Q876.0,666.3 882.0,665.9 Q888.0,665.4 894.0,665.0 Q900.0,664.6 906.0,664.2 Q912.0,663.8 918.0,663.4 Q924.0,663.0 930.0,662.7 Q936.0,662.3 942.0,662.0 Q948.0,661.6 954.0,661.2 Q960.0,660.9 966.0,660.5 Q972.0,660.2 978.0,659.8 Q984.0,659.5 990.0,659.1 Q996.0,658.8 1002.0,658.4 Q1008.0,658.0 1014.0,657.6 Q1020.0,657.3 1026.0,656.9 Q1032.0,656.5 1038.0,656.0 Q1044.0,655.6 1050.0,655.2 Q1056.0,654.7 1062.0,654.3 Q1068.0,653.8 1074.0,653.3 Q1080.0,652.8 1086.0,652.3 Q1092.0,651.8 1098.0,651.2 Q1104.0,650.6 1110.0,650.1 Q1116.0,649.5 1122.0,648.8 Q1128.0,648.2 1134.0,647.6 Q1140.0,646.9 1146.0,646.2 Q1152.0,645.5 1158.0,644.8 Q1164.0,644.1 1170.0,643.3 Q1176.0,642.6 1182.0,641.8 Q1188.0,641.0 1194.0,640.2 Q1200.0,639.3 1206.0,638.5 Q1212.0,637.6 1218.0,636.7 Q1224.0,635.8 1230.0,634.9 Q1236.0,634.0 1242.0,633.1 Q1248.0,632.1 1254.0,631.2 Q1260.0,630.2 1266.0,629.2 Q1272.0,628.2 1278.0,627.2 Q1284.0,626.2 1290.0,625.2 Q1296.0,624.2 1302.0,623.2 Q1308.0,622.2 1314.0,621.1 Q1320.0,620.1 1326.0,619.1 Q1332.0,618.1 1338.0,617.0 Q1344.0,616.0 1350.0,615.0 Q1356.0,614.0 1362.0,613.0 Q1368.0,612.0 1374.0,611.0 Q1380.0,610.0 1386.0,609.1 Q1392.0,608.1 1398.0,607.2 Q1404.0,606.3 1410.0,605.4 Q1416.0,604.5 1422.0,603.6 Q1428.0,602.8 1434.0,602.0 L1440,900 Z" fill="#32ade8" opacity="0.93"/><path d="M0,900 L0,828 Q0.0,735.8 6.0,738.0 Q12.0,740.2 18.0,742.4 Q24.0,744.7 30.0,746.9 Q36.0,749.2 42.0,751.5 Q48.0,753.8 54.0,756.1 Q60.0,758.4 66.0,760.7 Q72.0,763.0 78.0,765.3 Q84.0,767.7 90.0,770.0 Q96.0,772.3 102.0,774.6 Q108.0,776.9 114.0,779.2 Q120.0,781.5 126.0,783.8 Q132.0,786.0 138.0,788.3 Q144.0,790.5 150.0,792.7 Q156.0,794.9 162.0,797.1 Q168.0,799.3 174.0,801.4 Q180.0,803.5 186.0,805.6 Q192.0,807.7 198.0,809.7 Q204.0,811.7 210.0,813.7 Q216.0,815.7 222.0,817.6 Q228.0,819.5 234.0,821.3 Q240.0,823.2 246.0,825.0 Q252.0,826.7 258.0,828.5 Q264.0,830.2 270.0,831.8 Q276.0,833.5 282.0,835.0 Q288.0,836.6 294.0,838.1 Q300.0,839.6 306.0,841.0 Q312.0,842.5 318.0,843.8 Q324.0,845.2 330.0,846.5 Q336.0,847.8 342.0,849.0 Q348.0,850.2 354.0,851.3 Q360.0,852.5 366.0,853.5 Q372.0,854.6 378.0,855.6 Q384.0,856.6 390.0,857.5 Q396.0,858.4 402.0,859.3 Q408.0,860.2 414.0,861.0 Q420.0,861.8 426.0,862.5 Q432.0,863.2 438.0,863.9 Q444.0,864.6 450.0,865.2 Q456.0,865.9 462.0,866.4 Q468.0,867.0 474.0,867.5 Q480.0,868.1 486.0,868.5 Q492.0,869.0 498.0,869.5 Q504.0,869.9 510.0,870.3 Q516.0,870.7 522.0,871.1 Q528.0,871.5 534.0,871.8 Q540.0,872.2 546.0,872.5 Q552.0,872.8 558.0,873.1 Q564.0,873.4 570.0,873.7 Q576.0,874.0 582.0,874.2 Q588.0,874.5 594.0,874.8 Q600.0,875.0 606.0,875.3 Q612.0,875.6 618.0,875.8 Q624.0,876.1 630.0,876.3 Q636.0,876.6 642.0,876.9 Q648.0,877.2 654.0,877.4 Q660.0,877.7 666.0,878.0 Q672.0,878.3 678.0,878.6 Q684.0,879.0 690.0,879.3 Q696.0,879.6 702.0,880.0 Q708.0,880.3 714.0,880.7 Q720.0,881.1 726.0,881.5 Q732.0,881.9 738.0,882.4 Q744.0,882.8 750.0,883.3 Q756.0,883.7 762.0,884.2 Q768.0,884.7 774.0,885.3 Q780.0,885.8 786.0,886.4 Q792.0,886.9 798.0,887.5 Q804.0,888.1 810.0,888.7 Q816.0,889.4 822.0,890.0 Q828.0,890.7 834.0,891.4 Q840.0,892.1 846.0,892.8 Q852.0,893.5 858.0,894.2 Q864.0,895.0 870.0,895.8 Q876.0,896.5 882.0,897.3 Q888.0,898.1 894.0,898.9 Q900.0,899.7 906.0,900.6 Q912.0,901.4 918.0,902.2 Q924.0,903.1 930.0,903.9 Q936.0,904.8 942.0,905.6 Q948.0,906.5 954.0,907.4 Q960.0,908.2 966.0,909.1 Q972.0,909.9 978.0,910.8 Q984.0,911.7 990.0,912.5 Q996.0,913.3 1002.0,914.2 Q1008.0,915.0 1014.0,915.8 Q1020.0,916.6 1026.0,917.4 Q1032.0,918.2 1038.0,918.9 Q1044.0,919.7 1050.0,920.4 Q1056.0,921.1 1062.0,921.8 Q1068.0,922.4 1074.0,923.0 Q1080.0,923.7 1086.0,924.2 Q1092.0,924.8 1098.0,925.3 Q1104.0,925.8 1110.0,926.3 Q1116.0,926.7 1122.0,927.1 Q1128.0,927.5 1134.0,927.8 Q1140.0,928.1 1146.0,928.4 Q1152.0,928.6 1158.0,928.7 Q1164.0,928.9 1170.0,929.0 Q1176.0,929.0 1182.0,929.0 Q1188.0,929.0 1194.0,928.8 Q1200.0,928.7 1206.0,928.5 Q1212.0,928.3 1218.0,927.9 Q1224.0,927.6 1230.0,927.2 Q1236.0,926.8 1242.0,926.2 Q1248.0,925.7 1254.0,925.0 Q1260.0,924.4 1266.0,923.6 Q1272.0,922.9 1278.0,922.0 Q1284.0,921.1 1290.0,920.1 Q1296.0,919.1 1302.0,918.0 Q1308.0,916.9 1314.0,915.7 Q1320.0,914.5 1326.0,913.1 Q1332.0,911.8 1338.0,910.3 Q1344.0,908.8 1350.0,907.3 Q1356.0,905.7 1362.0,904.0 Q1368.0,902.3 1374.0,900.5 Q1380.0,898.7 1386.0,896.8 Q1392.0,894.9 1398.0,892.8 Q1404.0,890.8 1410.0,888.7 Q1416.0,886.6 1422.0,884.3 Q1428.0,882.1 1434.0,879.8 L1440,900 Z" fill="#38bdf8" opacity="1.00"/></svg>