<svg xmlns="http://www.w3.org/2000/svg" viewBox="0 0 1440 900"><rect width="1440" height="900" fill="#020617"/><path d="M0.0,105.7L9.6,107.3L19.2,108.9L28.8,110.5L38.4,112.0L48.0,113.5L57.6,114.9L67.2,116.2L76.8,117.3L86.4,118.3L96.0,119.1L105.6,119.8L115.2,120.2L124.8,120.4L134.4,120.4L144.0,120.1L153.6,119.6L163.2,118.8L172.8,117.7L182.4,116.4L192.0,114.8L201.6,112.9L211.2,110.7L220.8,108.2L230.4,105.5L240.0,102.5L249.6,99.2L259.2,95.8L268.8,92.1L278.4,88.2L288.0,84.1L297.6,79.9L307.2,75.5L316.8,71.1L326.4,66.5L336.0,61.9L345.6,57.3L355.2,52.6L364.8,48.0L374.4,43.4L384.0,38.9L393.6,34.6L403.2,30.3L412.8,26.2L422.4,22.3L432.0,18.6L441.6,15.1L451.2,11.8L460.8,8.8L470.4,6.1L480.0,3.7L489.6,1.5L499.2,-0.4L508.8,-1.9L518.4,-3.1L528.0,-4.1L537.6,-4.7L547.2,-5.1L556.8,-5.1L566.4,-4.9L576.0,-4.4L585.6,-3.6L595.2,-2.6L604.8,-1.4L614.4,0.0L624.0,1.6L633.6,3.4L643.2,5.3L652.8,7.3L662.4,9.5L672.0,11.7L681.6,13.9L691.2,16.2L700.8,18.5L710.4,20.7L720.0,23.0L729.6,25.2L739.2,27.3L748.8,29.3L758.4,31.2L768.0,33.0L777.6,34.7L787.2,36.3L796.8,37.7L806.4,39.0L816.0,40.2L825.6,41.2L835.2,42.0L844.8,42.8L854.4,43.4L864.0,43.8L873.6,44.2L883.2,44.5L892.8,44.7L902.4,44.8L912.0,44.9L921.6,44.9L931.2,44.9L940.8,44.9L950.4,44.9L960.0,44.9L969.6,45.0L979.2,45.2L988.8,45.4L998.4,45.7L1008.0,46.1L1017.6,46.7L1027.2,47.3L1036.8,48.2L1046.4,49.1L1056.0,50.3L1065.6,51.5L1075.2,53.0L1084.8,54.6L1094.4,56.3L1104.0,58.2L1113.6,60.3L1123.2,62.5L1132.8,64.8L1142.4,67.2L1152.0,69.8L1161.6,72.4L1171.2,75.0L1180.8,77.7L1190.4,80.5L1200.0,83.2L1209.6,85.9L1219.2,88.6L1228.8,91.2L1238.4,93.7L1248.0,96.0L1257.6,98.3L1267.2,100.3L1276.8,102.2L1286.4,103.8L1296.0,105.3L1305.6,106.5L1315.2,107.4L1324.8,108.0L1334.4,108.3L1344.0,108.3L1353.6,108.1L1363.2,107.4L1372.8,106.5L1382.4,105.2L1392.0,103.6L1401.6,101.7L1411.2,99.4L1420.8,96.9L1430.4,94.0L1440.0,90.9" fill="none" stroke="#06b6d4" stroke-width="0.4" opacity="0.18"/><path d="M0.0,30.6L9.6,34.2L19.2,38.0L28.8,41.9L38.4,46.1L48.0,50.4L57.6,54.9L67.2,59.5L76.8,64.2L86.4,69.0L96.0,73.8L105.6,78.6L115.2,83.4L124.8,88.1L134.4,92.8L144.0,97.4L153.6,101.9L163.2,106.2L172.8,110.3L182.4,114.3L192.0,118.0L201.6,121.5L211.2,124.8L220.8,127.7L230.4,130.5L240.0,132.9L249.6,135.0L259.2,136.8L268.8,138.4L278.4,139.6L288.0,140.5L297.6,141.2L307.2,141.5L316.8,141.6L326.4,141.4L336.0,141.0L345.6,140.3L355.2,139.4L364.8,138.3L374.4,137.0L384.0,135.5L393.6,133.9L403.2,132.2L412.8,130.4L422.4,128.5L432.0,126.6L441.6,124.6L451.2,122.6L460.8,120.7L470.4,118.7L480.0,116.8L489.6,115.0L499.2,113.3L508.8,111.6L518.4,110.1L528.0,108.6L537.6,107.3L547.2,106.2L556.8,105.1L566.4,104.2L576.0,103.4L585.6,102.8L595.2,102.2L604.8,101.8L614.4,101.5L624.0,101.3L633.6,101.2L643.2,101.2L652.8,101.2L662.4,101.3L672.0,101.4L681.6,101.5L691.2,101.6L700.8,101.7L710.4,101.7L720.0,101.7L729.6,101.6L739.2,101.5L748.8,101.2L758.4,100.8L768.0,100.2L777.6,99.6L787.2,98.7L796.8,97.7L806.4,96.6L816.0,95.3L825.6,93.8L835.2,92.1L844.8,90.3L854.4,88.3L864.0,86.1L873.6,83.8L883.2,81.4L892.8,78.8L902.4,76.2L912.0,73.4L921.6,70.6L931.2,67.7L940.8,64.8L950.4,61.9L960.0,59.0L969.6,56.2L979.2,53.4L988.8,50.7L998.4,48.1L1008.0,45.7L1017.6,43.4L1027.2,41.3L1036.8,39.4L1046.4,37.8L1056.0,36.4L1065.6,35.2L1075.2,34.4L1084.8,33.8L1094.4,33.5L1104.0,33.6L1113.6,34.0L1123.2,34.7L1132.8,35.7L1142.4,37.1L1152.0,38.7L1161.6,40.7L1171.2,43.1L1180.8,45.7L1190.4,48.6L1200.0,51.8L1209.6,55.2L1219.2,58.9L1228.8,62.8L1238.4,66.9L1248.0,71.2L1257.6,75.6L1267.2,80.2L1276.8,84.8L1286.4,89.5L1296.0,94.3L1305.6,99.0L1315.2,103.8L1324.8,108.5L1334.4,113.2L1344.0,117.8L1353.6,122.2L1363.2,126.6L1372.8,130.8L1382.4,134.8L1392.0,138.6L1401.6,142.2L1411.2,145.7L1420.8,148.9L1430.4,151.8L1440.0,154.6" fill="none" stroke="#0ab2d7" stroke-width="0.5" opacity="0.23"/><path d="M0.0,92.5L9.6,95.7L19.2,98.8L28.8,101.9L38.4,105.0L48.0,107.9L57.6,110.8L67.2,113.6L76.8,116.2L86.4,118.7L96.0,121.1L105.6,123.4L115.2,125.5L124.8,127.5L134.4,129.4L144.0,131.1L153.6,132.7L163.2,134.1L172.8,135.5L182.4,136.8L192.0,138.0L201.6,139.1L211.2,140.1L220.8,141.1L230.4,142.1L240.0,143.1L249.6,144.1L259.2,145.2L268.8,146.2L278.4,147.4L288.0,148.6L297.6,149.9L307.2,151.3L316.8,152.8L326.4,154.5L336.0,156.2L345.6,158.2L355.2,160.2L364.8,162.5L374.4,164.9L384.0,167.4L393.6,170.1L403.2,172.9L412.8,175.9L422.4,179.0L432.0,182.2L441.6,185.6L451.2,189.0L460.8,192.5L470.4,196.0L480.0,199.6L489.6,203.2L499.2,206.7L508.8,210.3L518.4,213.8L528.0,217.2L537.6,220.5L547.2,223.7L556.8,226.7L566.4,229.6L576.0,232.3L585.6,234.7L595.2,236.9L604.8,238.9L614.4,240.6L624.0,242.0L633.6,243.1L643.2,243.9L652.8,244.4L662.4,244.5L672.0,244.4L681.6,243.9L691.2,243.0L700.8,241.9L710.4,240.4L720.0,238.6L729.6,236.6L739.2,234.2L748.8,231.6L758.4,228.7L768.0,225.6L777.6,222.3L787.2,218.8L796.8,215.2L806.4,211.4L816.0,207.5L825.6,203.5L835.2,199.5L844.8,195.4L854.4,191.3L864.0,187.3L873.6,183.3L883.2,179.3L892.8,175.5L902.4,171.8L912.0,168.3L921.6,164.9L931.2,161.7L940.8,158.6L950.4,155.8L960.0,153.2L969.6,150.9L979.2,148.8L988.8,146.9L998.4,145.3L1008.0,143.9L1017.6,142.8L1027.2,141.9L1036.8,141.2L1046.4,140.8L1056.0,140.6L1065.6,140.6L1075.2,140.7L1084.8,141.1L1094.4,141.5L1104.0,142.2L1113.6,142.9L1123.2,143.8L1132.8,144.7L1142.4,145.7L1152.0,146.7L1161.6,147.7L1171.2,148.8L1180.8,149.8L1190.4,150.8L1200.0,151.8L1209.6,152.7L1219.2,153.5L1228.8,154.3L1238.4,154.9L1248.0,155.5L1257.6,155.9L1267.2,156.2L1276.8,156.5L1286.4,156.6L1296.0,156.6L1305.6,156.5L1315.2,156.3L1324.8,156.0L1334.4,155.7L1344.0,155.2L1353.6,154.8L1363.2,154.3L1372.8,153.8L1382.4,153.2L1392.0,152.7L1401.6,152.2L1411.2,151.8L1420.8,151.5L1430.4,151.2L1440.0,151.1" fill="none" stroke="#0eaed9" stroke-width="0.7" opacity="0.28"/><path d="M0.0,220.9L9.6,220.5L19.2,220.1L28.8,219.6L38.4,219.1L48.0,218.4L57.6,217.8L67.2,217.1L76.8,216.5L86.4,215.9L96.0,215.3L105.6,214.7L115.2,214.3L124.8,213.9L134.4,213.7L144.0,213.5L153.6,213.6L163.2,213.8L172.8,214.1L182.4,214.7L192.0,215.5L201.6,216.5L211.2,217.7L220.8,219.1L230.4,220.7L240.0,222.6L249.6,224.8L259.2,227.1L268.8,229.7L278.4,232.4L288.0,235.4L297.6,238.6L307.2,241.9L316.8,245.4L326.4,249.1L336.0,252.9L345.6,256.7L355.2,260.7L364.8,264.6L374.4,268.7L384.0,272.7L393.6,276.6L403.2,280.6L412.8,284.4L422.4,288.2L432.0,291.8L441.6,295.2L451.2,298.5L460.8,301.5L470.4,304.3L480.0,306.9L489.6,309.2L499.2,311.2L508.8,313.0L518.4,314.4L528.0,315.5L537.6,316.2L547.2,316.7L556.8,316.8L566.4,316.5L576.0,316.0L585.6,315.1L595.2,313.8L604.8,312.3L614.4,310.5L624.0,308.4L633.6,306.0L643.2,303.4L652.8,300.5L662.4,297.5L672.0,294.2L681.6,290.8L691.2,287.2L700.8,283.6L710.4,279.8L720.0,276.0L729.6,272.1L739.2,268.2L748.8,264.3L758.4,260.5L768.0,256.7L777.6,252.9L787.2,249.3L796.8,245.7L806.4,242.3L816.0,239.0L825.6,235.9L835.2,232.9L844.8,230.0L854.4,227.3L864.0,224.8L873.6,222.4L883.2,220.3L892.8,218.2L902.4,216.3L912.0,214.6L921.6,213.0L931.2,211.5L940.8,210.2L950.4,208.9L960.0,207.7L969.6,206.6L979.2,205.6L988.8,204.5L998.4,203.5L1008.0,202.5L1017.6,201.5L1027.2,200.4L1036.8,199.3L1046.4,198.2L1056.0,196.9L1065.6,195.6L1075.2,194.1L1084.8,192.6L1094.4,190.9L1104.0,189.2L1113.6,187.2L1123.2,185.2L1132.8,183.0L1142.4,180.8L1152.0,178.3L1161.6,175.8L1171.2,173.2L1180.8,170.5L1190.4,167.7L1200.0,164.8L1209.6,161.9L1219.2,158.9L1228.8,155.9L1238.4,153.0L1248.0,150.1L1257.6,147.2L1267.2,144.4L1276.8,141.7L1286.4,139.1L1296.0,136.6L1305.6,134.3L1315.2,132.2L1324.8,130.4L1334.4,128.7L1344.0,127.3L1353.6,126.1L1363.2,125.2L1372.8,124.7L1382.4,124.4L1392.0,124.4L1401.6,124.7L1411.2,125.4L1420.8,126.4L1430.4,127.7L1440.0,129.4" fill="none" stroke="#12aadc" stroke-width="0.8" opacity="0.33"/><path d="M0.0,281.8L9.6,278.0L19.2,274.3L28.8,270.9L38.4,267.7L48.0,264.8L57.6,262.2L67.2,259.9L76.8,257.8L86.4,256.1L96.0,254.6L105.6,253.4L115.2,252.6L124.8,252.0L134.4,251.7L144.0,251.7L153.6,252.0L163.2,252.5L172.8,253.2L182.4,254.2L192.0,255.4L201.6,256.7L211.2,258.2L220.8,259.9L230.4,261.6L240.0,263.5L249.6,265.4L259.2,267.4L268.8,269.4L278.4,271.5L288.0,273.5L297.6,275.4L307.2,277.4L316.8,279.2L326.4,281.0L336.0,282.7L345.6,284.3L355.2,285.7L364.8,287.1L374.4,288.3L384.0,289.4L393.6,290.3L403.2,291.1L412.8,291.8L422.4,292.4L432.0,292.8L441.6,293.1L451.2,293.4L460.8,293.5L470.4,293.6L480.0,293.6L489.6,293.5L499.2,293.5L508.8,293.4L518.4,293.3L528.0,293.3L537.6,293.3L547.2,293.3L556.8,293.5L566.4,293.7L576.0,294.0L585.6,294.5L595.2,295.0L604.8,295.8L614.4,296.6L624.0,297.7L633.6,298.9L643.2,300.2L652.8,301.8L662.4,303.5L672.0,305.4L681.6,307.4L691.2,309.6L700.8,312.0L710.4,314.4L720.0,317.0L729.6,319.7L739.2,322.5L748.8,325.4L758.4,328.3L768.0,331.2L777.6,334.2L787.2,337.1L796.8,340.0L806.4,342.8L816.0,345.5L825.6,348.1L835.2,350.6L844.8,352.9L854.4,355.0L864.0,356.9L873.6,358.6L883.2,360.0L892.8,361.2L902.4,362.0L912.0,362.6L921.6,362.9L931.2,362.8L940.8,362.5L950.4,361.8L960.0,360.7L969.6,359.3L979.2,357.7L988.8,355.6L998.4,353.3L1008.0,350.7L1017.6,347.7L1027.2,344.5L1036.8,341.1L1046.4,337.3L1056.0,333.4L1065.6,329.3L1075.2,325.0L1084.8,320.5L1094.4,315.9L1104.0,311.3L1113.6,306.5L1123.2,301.7L1132.8,296.9L1142.4,292.1L1152.0,287.3L1161.6,282.6L1171.2,278.0L1180.8,273.5L1190.4,269.1L1200.0,264.8L1209.6,260.7L1219.2,256.8L1228.8,253.1L1238.4,249.6L1248.0,246.4L1257.6,243.3L1267.2,240.5L1276.8,237.9L1286.4,235.6L1296.0,233.4L1305.6,231.6L1315.2,229.9L1324.8,228.5L1334.4,227.2L1344.0,226.2L1353.6,225.3L1363.2,224.7L1372.8,224.1L1382.4,223.7L1392.0,223.4L1401.6,223.3L1411.2,223.2L1420.8,223.1L1430.4,223.1L1440.0,223.2" fill="none" stroke="#16a6de" stroke-width="1.0" opacity="0.38"/><path d="M0.0,350.8L9.6,350.2L19.2,349.7L28.8,349.0L38.4,348.3L48.0,347.5L57.6,346.7L67.2,345.7L76.8,344.6L86.4,343.3L96.0,341.9L105.6,340.3L115.2,338.6L124.8,336.7L134.4,334.6L144.0,332.3L153.6,329.8L163.2,327.2L172.8,324.4L182.4,321.4L192.0,318.2L201.6,314.9L211.2,311.5L220.8,307.9L230.4,304.3L240.0,300.5L249.6,296.7L259.2,292.9L268.8,289.0L278.4,285.1L288.0,281.3L297.6,277.5L307.2,273.8L316.8,270.2L326.4,266.7L336.0,263.3L345.6,260.2L355.2,257.2L364.8,254.5L374.4,252.0L384.0,249.8L393.6,247.9L403.2,246.3L412.8,244.9L422.4,243.9L432.0,243.3L441.6,243.0L451.2,243.0L460.8,243.4L470.4,244.1L480.0,245.1L489.6,246.5L499.2,248.3L508.8,250.3L518.4,252.7L528.0,255.3L537.6,258.2L547.2,261.4L556.8,264.8L566.4,268.4L576.0,272.2L585.6,276.2L595.2,280.3L604.8,284.6L614.4,288.9L624.0,293.3L633.6,297.7L643.2,302.1L652.8,306.5L662.4,310.9L672.0,315.2L681.6,319.4L691.2,323.6L700.8,327.6L710.4,331.4L720.0,335.1L729.6,338.6L739.2,342.0L748.8,345.2L758.4,348.1L768.0,350.9L777.6,353.5L787.2,355.8L796.8,358.0L806.4,360.0L816.0,361.7L825.6,363.3L835.2,364.8L844.8,366.0L854.4,367.2L864.0,368.2L873.6,369.1L883.2,369.9L892.8,370.6L902.4,371.2L912.0,371.8L921.6,372.4L931.2,372.9L940.8,373.5L950.4,374.1L960.0,374.7L969.6,375.4L979.2,376.2L988.8,377.0L998.4,377.9L1008.0,378.9L1017.6,380.1L1027.2,381.3L1036.8,382.6L1046.4,384.1L1056.0,385.6L1065.6,387.3L1075.2,389.1L1084.8,390.9L1094.4,392.8L1104.0,394.8L1113.6,396.9L1123.2,399.0L1132.8,401.1L1142.4,403.2L1152.0,405.4L1161.6,407.5L1171.2,409.5L1180.8,411.5L1190.4,413.3L1200.0,415.1L1209.6,416.7L1219.2,418.2L1228.8,419.5L1238.4,420.6L1248.0,421.5L1257.6,422.2L1267.2,422.6L1276.8,422.7L1286.4,422.7L1296.0,422.3L1305.6,421.6L1315.2,420.7L1324.8,419.5L1334.4,418.0L1344.0,416.2L1353.6,414.1L1363.2,411.7L1372.8,409.1L1382.4,406.3L1392.0,403.2L1401.6,399.9L1411.2,396.3L1420.8,392.6L1430.4,388.8L1440.0,384.8" fill="none" stroke="#1aa2e1" stroke-width="1.1" opacity="0.43"/><path d="M0.0,406.9L9.6,408.1L19.2,409.2L28.8,410.2L38.4,411.2L48.0,412.2L57.6,413.1L67.2,413.9L76.8,414.8L86.4,415.7L96.0,416.7L105.6,417.6L115.2,418.7L124.8,419.8L134.4,421.1L144.0,422.4L153.6,423.9L163.2,425.5L172.8,427.3L182.4,429.2L192.0,431.3L201.6,433.6L211.2,436.0L220.8,438.6L230.4,441.4L240.0,444.3L249.6,447.5L259.2,450.7L268.8,454.1L278.4,457.7L288.0,461.4L297.6,465.1L307.2,469.0L316.8,472.9L326.4,476.8L336.0,480.8L345.6,484.8L355.2,488.7L364.8,492.6L374.4,496.5L384.0,500.2L393.6,503.8L403.2,507.2L412.8,510.5L422.4,513.6L432.0,516.4L441.6,519.0L451.2,521.4L460.8,523.4L470.4,525.2L480.0,526.6L489.6,527.8L499.2,528.6L508.8,529.0L518.4,529.2L528.0,528.9L537.6,528.4L547.2,527.5L556.8,526.2L566.4,524.6L576.0,522.7L585.6,520.5L595.2,518.0L604.8,515.3L614.4,512.2L624.0,509.0L633.6,505.5L643.2,501.8L652.8,498.0L662.4,494.0L672.0,489.9L681.6,485.8L691.2,481.5L700.8,477.2L710.4,473.0L720.0,468.7L729.6,464.5L739.2,460.3L748.8,456.2L758.4,452.2L768.0,448.4L777.6,444.7L787.2,441.2L796.8,437.8L806.4,434.6L816.0,431.6L825.6,428.9L835.2,426.3L844.8,423.9L854.4,421.8L864.0,419.9L873.6,418.1L883.2,416.6L892.8,415.2L902.4,414.1L912.0,413.1L921.6,412.2L931.2,411.6L940.8,411.0L950.4,410.5L960.0,410.2L969.6,409.9L979.2,409.6L988.8,409.4L998.4,409.2L1008.0,409.1L1017.6,408.9L1027.2,408.6L1036.8,408.4L1046.4,408.0L1056.0,407.6L1065.6,407.1L1075.2,406.5L1084.8,405.9L1094.4,405.1L1104.0,404.2L1113.6,403.2L1123.2,402.0L1132.8,400.8L1142.4,399.5L1152.0,398.0L1161.6,396.5L1171.2,394.9L1180.8,393.3L1190.4,391.5L1200.0,389.8L1209.6,388.0L1219.2,386.3L1228.8,384.5L1238.4,382.8L1248.0,381.1L1257.6,379.5L1267.2,378.0L1276.8,376.7L1286.4,375.5L1296.0,374.4L1305.6,373.5L1315.2,372.8L1324.8,372.3L1334.4,372.0L1344.0,372.0L1353.6,372.2L1363.2,372.7L1372.8,373.4L1382.4,374.4L1392.0,375.7L1401.6,377.2L1411.2,379.0L1420.8,381.1L1430.4,383.5L1440.0,386.1" fill="none" stroke="#1e9ee4" stroke-width="1.2" opacity="0.48"/><path d="M0.0,464.9L9.6,463.6L19.2,462.4L28.8,461.2L38.4,460.2L48.0,459.2L57.6,458.3L67.2,457.4L76.8,456.5L86.4,455.6L96.0,454.7L105.6,453.7L115.2,452.7L124.8,451.6L134.4,450.4L144.0,449.2L153.6,447.8L163.2,446.3L172.8,444.7L182.4,443.0L192.0,441.1L201.6,439.1L211.2,436.9L220.8,434.6L230.4,432.2L240.0,429.6L249.6,426.9L259.2,424.2L268.8,421.3L278.4,418.3L288.0,415.3L297.6,412.2L307.2,409.1L316.8,406.0L326.4,402.9L336.0,399.8L345.6,396.8L355.2,393.9L364.8,391.1L374.4,388.4L384.0,385.9L393.6,383.5L403.2,381.3L412.8,379.4L422.4,377.7L432.0,376.3L441.6,375.1L451.2,374.2L460.8,373.6L470.4,373.3L480.0,373.4L489.6,373.8L499.2,374.5L508.8,375.6L518.4,377.0L528.0,378.7L537.6,380.7L547.2,383.1L556.8,385.8L566.4,388.7L576.0,392.0L585.6,395.5L595.2,399.2L604.8,403.2L614.4,407.4L624.0,411.7L633.6,416.2L643.2,420.8L652.8,425.5L662.4,430.3L672.0,435.2L681.6,440.0L691.2,444.8L700.8,449.6L710.4,454.4L720.0,459.0L729.6,463.5L739.2,467.9L748.8,472.1L758.4,476.2L768.0,480.1L777.6,483.7L787.2,487.2L796.8,490.4L806.4,493.4L816.0,496.1L825.6,498.6L835.2,500.8L844.8,502.8L854.4,504.6L864.0,506.1L873.6,507.4L883.2,508.4L892.8,509.3L902.4,510.0L912.0,510.4L921.6,510.7L931.2,510.9L940.8,510.9L950.4,510.9L960.0,510.7L969.6,510.5L979.2,510.2L988.8,509.9L998.4,509.5L1008.0,509.2L1017.6,508.9L1027.2,508.6L1036.8,508.3L1046.4,508.2L1056.0,508.1L1065.6,508.1L1075.2,508.2L1084.8,508.3L1094.4,508.6L1104.0,509.0L1113.6,509.5L1123.2,510.1L1132.8,510.8L1142.4,511.6L1152.0,512.4L1161.6,513.4L1171.2,514.4L1180.8,515.4L1190.4,516.5L1200.0,517.6L1209.6,518.7L1219.2,519.8L1228.8,520.9L1238.4,521.9L1248.0,522.8L1257.6,523.6L1267.2,524.3L1276.8,524.9L1286.4,525.4L1296.0,525.7L1305.6,525.8L1315.2,525.7L1324.8,525.4L1334.4,524.9L1344.0,524.1L1353.6,523.1L1363.2,521.9L1372.8,520.5L1382.4,518.8L1392.0,516.8L1401.6,514.6L1411.2,512.2L1420.8,509.6L1430.4,506.8L1440.0,503.7" fill="none" stroke="#239ae6" stroke-width="1.4" opacity="0.53"/><path d="M0.0,600.9L9.6,601.0L19.2,601.1L28.8,601.1L38.4,601.2L48.0,601.2L57.6,601.4L67.2,601.6L76.8,601.8L86.4,602.1L96.0,602.6L105.6,603.1L115.2,603.7L124.8,604.4L134.4,605.1L144.0,606.0L153.6,607.0L163.2,608.0L172.8,609.1L182.4,610.3L192.0,611.6L201.6,612.8L211.2,614.1L220.8,615.4L230.4,616.7L240.0,617.9L249.6,619.1L259.2,620.2L268.8,621.3L278.4,622.2L288.0,623.0L297.6,623.6L307.2,624.1L316.8,624.4L326.4,624.5L336.0,624.4L345.6,624.0L355.2,623.4L364.8,622.6L374.4,621.5L384.0,620.1L393.6,618.5L403.2,616.6L412.8,614.5L422.4,612.0L432.0,609.4L441.6,606.4L451.2,603.3L460.8,599.9L470.4,596.3L480.0,592.4L489.6,588.5L499.2,584.3L508.8,580.1L518.4,575.7L528.0,571.2L537.6,566.7L547.2,562.2L556.8,557.6L566.4,553.1L576.0,548.6L585.6,544.2L595.2,539.9L604.8,535.7L614.4,531.7L624.0,527.8L633.6,524.2L643.2,520.8L652.8,517.6L662.4,514.7L672.0,512.0L681.6,509.7L691.2,507.6L700.8,505.8L710.4,504.4L720.0,503.2L729.6,502.4L739.2,501.9L748.8,501.7L758.4,501.8L768.0,502.2L777.6,502.8L787.2,503.8L796.8,505.0L806.4,506.4L816.0,508.0L825.6,509.9L835.2,511.9L844.8,514.0L854.4,516.3L864.0,518.7L873.6,521.2L883.2,523.8L892.8,526.4L902.4,529.0L912.0,531.6L921.6,534.1L931.2,536.7L940.8,539.1L950.4,541.5L960.0,543.8L969.6,545.9L979.2,548.0L988.8,549.9L998.4,551.6L1008.0,553.2L1017.6,554.7L1027.2,556.0L1036.8,557.1L1046.4,558.1L1056.0,559.0L1065.6,559.7L1075.2,560.3L1084.8,560.7L1094.4,561.1L1104.0,561.4L1113.6,561.5L1123.2,561.7L1132.8,561.7L1142.4,561.8L1152.0,561.8L1161.6,561.8L1171.2,561.9L1180.8,562.0L1190.4,562.1L1200.0,562.3L1209.6,562.6L1219.2,563.0L1228.8,563.5L1238.4,564.1L1248.0,564.9L1257.6,565.8L1267.2,566.8L1276.8,568.0L1286.4,569.3L1296.0,570.8L1305.6,572.4L1315.2,574.1L1324.8,576.0L1334.4,578.0L1344.0,580.1L1353.6,582.3L1363.2,584.6L1372.8,587.0L1382.4,589.4L1392.0,591.8L1401.6,594.2L1411.2,596.6L1420.8,599.0L1430.4,601.3L1440.0,603.5" fill="none" stroke="#2796e9" stroke-width="1.5" opacity="0.58"/><path d="M0.0,624.3L9.6,620.8L19.2,617.5L28.8,614.3L38.4,611.3L48.0,608.6L57.6,606.0L67.2,603.7L76.8,601.6L86.4,599.7L96.0,598.1L105.6,596.7L115.2,595.5L124.8,594.5L134.4,593.8L144.0,593.3L153.6,592.9L163.2,592.8L172.8,592.8L182.4,593.0L192.0,593.3L201.6,593.8L211.2,594.3L220.8,594.9L230.4,595.6L240.0,596.4L249.6,597.1L259.2,597.9L268.8,598.7L278.4,599.4L288.0,600.1L297.6,600.7L307.2,601.3L316.8,601.8L326.4,602.1L336.0,602.4L345.6,602.6L355.2,602.7L364.8,602.7L374.4,602.5L384.0,602.3L393.6,601.9L403.2,601.5L412.8,600.9L422.4,600.3L432.0,599.6L441.6,598.9L451.2,598.1L460.8,597.3L470.4,596.4L480.0,595.6L489.6,594.9L499.2,594.1L508.8,593.5L518.4,592.9L528.0,592.4L537.6,592.1L547.2,591.9L556.8,591.9L566.4,592.0L576.0,592.4L585.6,592.9L595.2,593.7L604.8,594.7L614.4,595.9L624.0,597.4L633.6,599.1L643.2,601.1L652.8,603.3L662.4,605.7L672.0,608.4L681.6,611.3L691.2,614.4L700.8,617.7L710.4,621.2L720.0,624.9L729.6,628.8L739.2,632.8L748.8,636.8L758.4,641.0L768.0,645.2L777.6,649.5L787.2,653.8L796.8,658.1L806.4,662.3L816.0,666.4L825.6,670.5L835.2,674.4L844.8,678.2L854.4,681.8L864.0,685.2L873.6,688.4L883.2,691.3L892.8,694.0L902.4,696.4L912.0,698.5L921.6,700.3L931.2,701.8L940.8,703.0L950.4,703.8L960.0,704.3L969.6,704.5L979.2,704.3L988.8,703.9L998.4,703.1L1008.0,702.0L1017.6,700.6L1027.2,698.9L1036.8,696.9L1046.4,694.7L1056.0,692.3L1065.6,689.6L1075.2,686.8L1084.8,683.8L1094.4,680.6L1104.0,677.3L1113.6,674.0L1123.2,670.5L1132.8,667.0L1142.4,663.5L1152.0,660.0L1161.6,656.5L1171.2,653.0L1180.8,649.6L1190.4,646.2L1200.0,643.0L1209.6,639.8L1219.2,636.8L1228.8,633.9L1238.4,631.1L1248.0,628.5L1257.6,626.0L1267.2,623.7L1276.8,621.5L1286.4,619.4L1296.0,617.5L1305.6,615.8L1315.2,614.1L1324.8,612.6L1334.4,611.2L1344.0,609.9L1353.6,608.6L1363.2,607.4L1372.8,606.3L1382.4,605.2L1392.0,604.1L1401.6,603.0L1411.2,601.8L1420.8,600.7L1430.4,599.5L1440.0,598.2" fill="none" stroke="#2b92ec" stroke-width="1.6" opacity="0.63"/><path d="M0.0,753.7L9.6,753.2L19.2,752.6L28.8,751.8L38.4,751.0L48.0,750.0L57.6,749.0L67.2,747.9L76.8,746.8L86.4,745.6L96.0,744.5L105.6,743.4L115.2,742.3L124.8,741.3L134.4,740.3L144.0,739.4L153.6,738.6L163.2,737.9L172.8,737.2L182.4,736.7L192.0,736.2L201.6,735.9L211.2,735.6L220.8,735.4L230.4,735.3L240.0,735.2L249.6,735.2L259.2,735.2L268.8,735.3L278.4,735.4L288.0,735.4L297.6,735.5L307.2,735.5L316.8,735.4L326.4,735.3L336.0,735.1L345.6,734.8L355.2,734.3L364.8,733.7L374.4,732.9L384.0,731.9L393.6,730.7L403.2,729.3L412.8,727.7L422.4,725.9L432.0,723.9L441.6,721.5L451.2,719.0L460.8,716.2L470.4,713.2L480.0,709.9L489.6,706.4L499.2,702.7L508.8,698.7L518.4,694.6L528.0,690.3L537.6,685.8L547.2,681.1L556.8,676.3L566.4,671.5L576.0,666.5L585.6,661.5L595.2,656.5L604.8,651.4L614.4,646.4L624.0,641.4L633.6,636.6L643.2,631.8L652.8,627.1L662.4,622.6L672.0,618.3L681.6,614.2L691.2,610.3L700.8,606.7L710.4,603.3L720.0,600.2L729.6,597.4L739.2,594.9L748.8,592.7L758.4,590.9L768.0,589.4L777.6,588.2L787.2,587.4L796.8,586.8L806.4,586.6L816.0,586.8L825.6,587.2L835.2,587.9L844.8,589.0L854.4,590.2L864.0,591.8L873.6,593.5L883.2,595.5L892.8,597.6L902.4,599.9L912.0,602.4L921.6,604.9L931.2,607.6L940.8,610.3L950.4,613.1L960.0,615.9L969.6,618.7L979.2,621.4L988.8,624.1L998.4,626.8L1008.0,629.4L1017.6,631.8L1027.2,634.2L1036.8,636.4L1046.4,638.5L1056.0,640.5L1065.6,642.3L1075.2,643.9L1084.8,645.4L1094.4,646.8L1104.0,648.0L1113.6,649.0L1123.2,649.9L1132.8,650.7L1142.4,651.3L1152.0,651.9L1161.6,652.3L1171.2,652.7L1180.8,652.9L1190.4,653.2L1200.0,653.4L1209.6,653.6L1219.2,653.8L1228.8,654.0L1238.4,654.2L1248.0,654.5L1257.6,654.8L1267.2,655.3L1276.8,655.8L1286.4,656.4L1296.0,657.2L1305.6,658.0L1315.2,659.1L1324.8,660.2L1334.4,661.5L1344.0,662.9L1353.6,664.5L1363.2,666.3L1372.8,668.1L1382.4,670.1L1392.0,672.2L1401.6,674.4L1411.2,676.8L1420.8,679.2L1430.4,681.6L1440.0,684.2" fill="none" stroke="#2f8eee" stroke-width="1.8" opacity="0.68"/><path d="M0.0,768.9L9.6,770.4L19.2,771.7L28.8,772.9L38.4,773.9L48.0,774.9L57.6,775.8L67.2,776.6L76.8,777.3L86.4,778.0L96.0,778.7L105.6,779.4L115.2,780.1L124.8,780.9L134.4,781.7L144.0,782.5L153.6,783.4L163.2,784.4L172.8,785.5L182.4,786.7L192.0,788.0L201.6,789.4L211.2,790.9L220.8,792.5L230.4,794.2L240.0,796.0L249.6,797.9L259.2,799.8L268.8,801.9L278.4,804.0L288.0,806.1L297.6,808.3L307.2,810.5L316.8,812.6L326.4,814.8L336.0,816.9L345.6,818.9L355.2,820.8L364.8,822.6L374.4,824.3L384.0,825.8L393.6,827.2L403.2,828.3L412.8,829.3L422.4,830.0L432.0,830.4L441.6,830.6L451.2,830.5L460.8,830.2L470.4,829.5L480.0,828.6L489.6,827.3L499.2,825.7L508.8,823.9L518.4,821.7L528.0,819.3L537.6,816.5L547.2,813.5L556.8,810.2L566.4,806.7L576.0,803.0L585.6,799.0L595.2,794.9L604.8,790.6L614.4,786.1L624.0,781.5L633.6,776.9L643.2,772.2L652.8,767.4L662.4,762.6L672.0,757.9L681.6,753.2L691.2,748.6L700.8,744.0L710.4,739.6L720.0,735.4L729.6,731.3L739.2,727.4L748.8,723.8L758.4,720.3L768.0,717.1L777.6,714.2L787.2,711.5L796.8,709.2L806.4,707.1L816.0,705.3L825.6,703.7L835.2,702.5L844.8,701.6L854.4,700.9L864.0,700.5L873.6,700.4L883.2,700.5L892.8,700.8L902.4,701.4L912.0,702.2L921.6,703.1L931.2,704.3L940.8,705.5L950.4,706.9L960.0,708.4L969.6,710.0L979.2,711.6L988.8,713.2L998.4,714.9L1008.0,716.6L1017.6,718.2L1027.2,719.8L1036.8,721.4L1046.4,722.8L1056.0,724.2L1065.6,725.5L1075.2,726.7L1084.8,727.8L1094.4,728.7L1104.0,729.6L1113.6,730.3L1123.2,730.8L1132.8,731.3L1142.4,731.6L1152.0,731.9L1161.6,732.0L1171.2,732.0L1180.8,732.0L1190.4,731.9L1200.0,731.7L1209.6,731.5L1219.2,731.3L1228.8,731.1L1238.4,730.9L1248.0,730.8L1257.6,730.6L1267.2,730.6L1276.8,730.6L1286.4,730.8L1296.0,731.0L1305.6,731.4L1315.2,732.0L1324.8,732.7L1334.4,733.5L1344.0,734.5L1353.6,735.7L1363.2,737.1L1372.8,738.7L1382.4,740.5L1392.0,742.4L1401.6,744.5L1411.2,746.8L1420.8,749.3L1430.4,751.9L1440.0,754.6" fill="none" stroke="#338af1" stroke-width="1.9" opacity="0.73"/><path d="M0.0,769.3L9.6,769.3L19.2,769.7L28.8,770.2L38.4,770.9L48.0,771.8L57.6,772.9L67.2,774.2L76.8,775.6L86.4,777.0L96.0,778.6L105.6,780.2L115.2,781.9L124.8,783.6L134.4,785.3L144.0,787.0L153.6,788.6L163.2,790.2L172.8,791.7L182.4,793.2L192.0,794.6L201.6,795.8L211.2,797.0L220.8,798.0L230.4,799.0L240.0,799.8L249.6,800.4L259.2,801.0L268.8,801.5L278.4,801.8L288.0,802.0L297.6,802.2L307.2,802.3L316.8,802.3L326.4,802.2L336.0,802.1L345.6,802.0L355.2,801.9L364.8,801.8L374.4,801.8L384.0,801.8L393.6,801.8L403.2,802.0L412.8,802.2L422.4,802.6L432.0,803.1L441.6,803.7L451.2,804.5L460.8,805.5L470.4,806.7L480.0,808.0L489.6,809.5L499.2,811.2L508.8,813.2L518.4,815.3L528.0,817.6L537.6,820.0L547.2,822.7L556.8,825.5L566.4,828.5L576.0,831.6L585.6,834.8L595.2,838.1L604.8,841.6L614.4,845.0L624.0,848.5L633.6,852.1L643.2,855.6L652.8,859.1L662.4,862.5L672.0,865.8L681.6,869.0L691.2,872.1L700.8,875.0L710.4,877.8L720.0,880.3L729.6,882.6L739.2,884.6L748.8,886.4L758.4,887.9L768.0,889.1L777.6,890.0L787.2,890.5L796.8,890.7L806.4,890.6L816.0,890.1L825.6,889.3L835.2,888.2L844.8,886.7L854.4,884.9L864.0,882.8L873.6,880.4L883.2,877.7L892.8,874.7L902.4,871.5L912.0,868.0L921.6,864.3L931.2,860.4L940.8,856.4L950.4,852.2L960.0,847.9L969.6,843.4L979.2,839.0L988.8,834.5L998.4,829.9L1008.0,825.4L1017.6,820.9L1027.2,816.5L1036.8,812.1L1046.4,807.9L1056.0,803.8L1065.6,799.8L1075.2,795.9L1084.8,792.3L1094.4,788.8L1104.0,785.5L1113.6,782.3L1123.2,779.4L1132.8,776.7L1142.4,774.2L1152.0,771.9L1161.6,769.8L1171.2,767.9L1180.8,766.1L1190.4,764.6L1200.0,763.2L1209.6,761.9L1219.2,760.8L1228.8,759.8L1238.4,758.9L1248.0,758.0L1257.6,757.3L1267.2,756.6L1276.8,755.9L1286.4,755.3L1296.0,754.6L1305.6,754.0L1315.2,753.3L1324.8,752.5L1334.4,751.7L1344.0,750.8L1353.6,749.9L1363.2,748.8L1372.8,747.7L1382.4,746.4L1392.0,745.1L1401.6,743.6L1411.2,742.0L1420.8,740.4L1430.4,738.6L1440.0,736.8" fill="none" stroke="#3786f3" stroke-width="2.1" opacity="0.78"/><path d="M0.0,843.9L9.6,841.1L19.2,838.6L28.8,836.3L38.4,834.3L48.0,832.7L57.6,831.3L67.2,830.2L76.8,829.3L86.4,828.8L96.0,828.5L105.6,828.4L115.2,828.6L124.8,829.0L134.4,829.6L144.0,830.5L153.6,831.4L163.2,832.6L172.8,833.8L182.4,835.2L192.0,836.6L201.6,838.1L211.2,839.7L220.8,841.2L230.4,842.8L240.0,844.4L249.6,845.9L259.2,847.4L268.8,848.8L278.4,850.1L288.0,851.3L297.6,852.5L307.2,853.5L316.8,854.4L326.4,855.2L336.0,855.8L345.6,856.4L355.2,856.8L364.8,857.1L374.4,857.3L384.0,857.3L393.6,857.3L403.2,857.3L412.8,857.1L422.4,856.9L432.0,856.7L441.6,856.4L451.2,856.2L460.8,855.9L470.4,855.7L480.0,855.5L489.6,855.4L499.2,855.4L508.8,855.5L518.4,855.7L528.0,856.0L537.6,856.5L547.2,857.1L556.8,857.9L566.4,858.9L576.0,860.1L585.6,861.4L595.2,862.9L604.8,864.7L614.4,866.6L624.0,868.7L633.6,870.9L643.2,873.4L652.8,876.0L662.4,878.7L672.0,881.6L681.6,884.6L691.2,887.7L700.8,890.8L710.4,894.0L720.0,897.3L729.6,900.5L739.2,903.8L748.8,907.0L758.4,910.1L768.0,913.1L777.6,916.0L787.2,918.8L796.8,921.4L806.4,923.9L816.0,926.1L825.6,928.0L835.2,929.8L844.8,931.2L854.4,932.4L864.0,933.3L873.6,933.8L883.2,934.1L892.8,934.0L902.4,933.6L912.0,932.8L921.6,931.7L931.2,930.3L940.8,928.6L950.4,926.5L960.0,924.2L969.6,921.5L979.2,918.6L988.8,915.4L998.4,911.9L1008.0,908.3L1017.6,904.4L1027.2,900.4L1036.8,896.2L1046.4,891.9L1056.0,887.5L1065.6,883.0L1075.2,878.5L1084.8,873.9L1094.4,869.4L1104.0,864.9L1113.6,860.4L1123.2,856.0L1132.8,851.7L1142.4,847.6L1152.0,843.5L1161.6,839.7L1171.2,836.0L1180.8,832.4L1190.4,829.1L1200.0,826.0L1209.6,823.1L1219.2,820.4L1228.8,817.9L1238.4,815.7L1248.0,813.6L1257.6,811.8L1267.2,810.2L1276.8,808.7L1286.4,807.5L1296.0,806.4L1305.6,805.5L1315.2,804.7L1324.8,804.1L1334.4,803.6L1344.0,803.1L1353.6,802.8L1363.2,802.5L1372.8,802.2L1382.4,802.0L1392.0,801.8L1401.6,801.6L1411.2,801.3L1420.8,801.0L1430.4,800.7L1440.0,800.3" fill="none" stroke="#3b82f6" stroke-width="2.2" opacity="0.83"/></svg>